FiraCode-Bold.ufo
<glyph name="dollar" format="2">
  <advance width="1200"/>
  <unicode hex="0024"/>
  <outline>
    <contour>
      <point x="698" y="1712" type="line"/>
      <point x="537" y="1712" type="line"/>
      <point x="537" y="1414" type="line"/>
      <point x="289" y="1388"/>
      <point x="134" y="1239"/>
      <point x="134" y="1023" type="curve" smooth="yes"/>
      <point x="134" y="833"/>
      <point x="248" y="711"/>
      <point x="537" y="616" type="curve"/>
      <point x="537" y="200" type="line"/>
      <point x="418" y="208"/>
      <point x="326" y="256"/>
      <point x="236" y="334" type="curve"/>
      <point x="83" y="158" type="line"/>
      <point x="181" y="64"/>
      <point x="339" y="-18"/>
      <point x="537" y="-32" type="curve"/>
      <point x="537" y="-324" type="line"/>
      <point x="698" y="-324" type="line"/>
      <point x="698" y="-26" type="line"/>
      <point x="967" y="8"/>
      <point x="1117" y="184"/>
      <point x="1117" y="407" type="curve" smooth="yes"/>
      <point x="1117" y="647"/>
      <point x="966" y="755"/>
      <point x="698" y="845" type="curve"/>
      <point x="698" y="1194" type="line"/>
      <point x="780" y="1188"/>
      <point x="864" y="1157"/>
      <point x="938" y="1097" type="curve"/>
      <point x="1091" y="1257" type="line"/>
      <point x="994" y="1339"/>
      <point x="862" y="1401"/>
      <point x="698" y="1415" type="curve"/>
    </contour>
    <contour>
      <point x="698" y="552" type="line"/>
      <point x="797" y="502"/>
      <point x="822" y="447"/>
      <point x="822" y="370" type="curve" smooth="yes"/>
      <point x="822" y="281"/>
      <point x="779" y="224"/>
      <point x="698" y="206" type="curve"/>
    </contour>
    <contour>
      <point x="537" y="1192" type="curve"/>
      <point x="537" y="906" type="line"/>
      <point x="431" y="955"/>
      <point x="417" y="993"/>
      <point x="417" y="1060" type="curve" smooth="yes"/>
      <point x="417" y="1123"/>
      <point x="456" y="1178"/>
    </contour>
  </outline>
</glyph>
<glyph name="comma" format="2">
  <advance width="1200"/>
  <unicode hex="002C"/>
  <outline>
    <contour>
      <point x="600" y="412" type="curve" smooth="yes"/>
      <point x="477" y="412"/>
      <point x="384" y="318"/>
      <point x="384" y="197" type="curve" smooth="yes"/>
      <point x="384" y="122"/>
      <point x="417" y="56"/>
      <point x="479" y="18" type="curve"/>
      <point x="377" y="-407" type="line"/>
      <point x="587" y="-407" type="line"/>
      <point x="732" y="-80" type="line" smooth="yes"/>
      <point x="789" y="51"/>
      <point x="818" y="116"/>
      <point x="818" y="195" type="curve" smooth="yes"/>
      <point x="818" y="318"/>
      <point x="725" y="412"/>
    </contour>
  </outline>
</glyph>
<glyph name="hyphen" format="2">
  <advance width="1200"/>
  <unicode hex="002D"/>
  <outline>
    <contour>
      <point x="167" y="503" type="line"/>
      <point x="1033" y="503" type="line"/>
      <point x="1033" y="749" type="line"/>
      <point x="167" y="749" type="line"/>
    </contour>
  </outline>
</glyph>
<glyph name="five" format="2">
  <advance width="1200"/>
  <unicode hex="0035"/>
  <outline>
    <contour>
      <point x="1030" y="1386" type="line"/>
      <point x="186" y="1386" type="line"/>
      <point x="186" y="641" type="line"/>
      <point x="399" y="641" type="line"/>
      <point x="460" y="675"/>
      <point x="518" y="687"/>
      <point x="569" y="687" type="curve" smooth="yes"/>
      <point x="681" y="687"/>
      <point x="756" y="621"/>
      <point x="756" y="450" type="curve" smooth="yes"/>
      <point x="756" y="306"/>
      <point x="660" y="208"/>
      <point x="513" y="208" type="curve" smooth="yes"/>
      <point x="417" y="208"/>
      <point x="326" y="253"/>
      <point x="260" y="339" type="curve"/>
      <point x="78" y="173" type="line"/>
      <point x="180" y="48"/>
      <point x="337" y="-34"/>
      <point x="538" y="-34" type="curve" smooth="yes"/>
      <point x="863" y="-34"/>
      <point x="1082" y="174"/>
      <point x="1082" y="455" type="curve" smooth="yes"/>
      <point x="1082" y="735"/>
      <point x="907" y="905"/>
      <point x="693" y="905" type="curve" smooth="yes"/>
      <point x="632" y="905"/>
      <point x="556" y="893"/>
      <point x="488" y="861" type="curve"/>
      <point x="488" y="1160" type="line"/>
      <point x="995" y="1160" type="line"/>
    </contour>
  </outline>
</glyph>
<glyph name="nine" format="2">
  <advance width="1200"/>
  <unicode hex="0039"/>
  <outline>
    <contour>
      <point x="592" y="1421" type="curve" smooth="yes"/>
      <point x="305" y="1421"/>
      <point x="87" y="1222"/>
      <point x="87" y="923" type="curve"/>
      <point x="87" y="654"/>
      <point x="261" y="479"/>
      <point x="479" y="479" type="curve" smooth="yes"/>
      <point x="618" y="479"/>
      <point x="714" y="539"/>
      <point x="811" y="639" type="curve"/>
      <point x="815" y="817" type="line"/>
      <point x="739" y="741"/>
      <point x="669" y="700"/>
      <point x="577" y="700" type="curve" smooth="yes"/>
      <point x="482" y="700"/>
      <point x="405" y="761"/>
      <point x="405" y="932" type="curve"/>
      <point x="405" y="1113"/>
      <point x="476" y="1196"/>
      <point x="590" y="1196" type="curve" smooth="yes"/>
      <point x="753" y="1196"/>
      <point x="780" y="1054"/>
      <point x="776" y="760" type="curve"/>
      <point x="776" y="653" type="line"/>
      <point x="731" y="397"/>
      <point x="548" y="252"/>
      <point x="192" y="162" type="curve"/>
      <point x="257" y="-60" type="line"/>
      <point x="839" y="61"/>
      <point x="1102" y="336"/>
      <point x="1102" y="868" type="curve" smooth="yes"/>
      <point x="1102" y="1196"/>
      <point x="931" y="1421"/>
    </contour>
  </outline>
</glyph>
<glyph name="less" format="2">
  <advance width="1200"/>
  <unicode hex="003C"/>
  <outline>
    <contour>
      <point x="923" y="1225" type="line"/>
      <point x="139" y="739" type="line"/>
      <point x="139" y="515" type="line"/>
      <point x="918" y="31" type="line"/>
      <point x="1061" y="256" type="line"/>
      <point x="412" y="628" type="line"/>
      <point x="1061" y="1007" type="line"/>
    </contour>
  </outline>
</glyph>
<glyph name="A" format="2">
  <advance width="1200"/>
  <unicode hex="0041"/>
  <anchor x="598" y="0" name="bottom"/>
  <anchor x="1086" y="0" name="ogonek"/>
  <anchor x="600" y="1386" name="top"/>
  <anchor x="361" y="1386" name="topleft"/>
  <outline>
    <contour>
      <point x="800" y="299" type="line"/>
      <point x="873" y="0" type="line"/>
      <point x="1224" y="0" type="line"/>
      <point x="800" y="1386" type="line"/>
      <point x="402" y="1386" type="line"/>
      <point x="-22" y="0" type="line"/>
      <point x="321" y="0" type="line"/>
      <point x="394" y="299" type="line"/>
    </contour>
    <contour>
      <point x="446" y="537" type="line"/>
      <point x="596" y="1150" type="line"/>
      <point x="746" y="537" type="line"/>
    </contour>
  </outline>
</glyph>
<glyph name="D" format="2">
  <advance width="1200"/>
  <unicode hex="0044"/>
  <anchor x="600" y="0" name="bottom"/>
  <anchor x="600" y="694" name="center"/>
  <anchor x="574" y="1386" name="top"/>
  <outline>
    <contour>
      <point x="809" y="700" type="curve" smooth="yes"/>
      <point x="809" y="335"/>
      <point x="684" y="237"/>
      <point x="502" y="237" type="curve" smooth="yes"/>
      <point x="432" y="237" type="line"/>
      <point x="432" y="1148" type="line"/>
      <point x="502" y="1148" type="line" smooth="yes"/>
      <point x="676" y="1148"/>
      <point x="809" y="1073"/>
    </contour>
    <contour>
      <point x="1149" y="700" type="curve" smooth="yes"/>
      <point x="1149" y="1272"/>
      <point x="809" y="1386"/>
      <point x="454" y="1386" type="curve" smooth="yes"/>
      <point x="104" y="1386" type="line"/>
      <point x="104" y="0" type="line"/>
      <point x="478" y="0" type="line" smooth="yes"/>
      <point x="823" y="0"/>
      <point x="1149" y="136"/>
    </contour>
  </outline>
</glyph>
<glyph name="F" format="2">
  <advance width="1200"/>
  <unicode hex="0046"/>
  <anchor x="600" y="0" name="bottom"/>
  <anchor x="600" y="1386" name="top"/>
  <outline>
    <contour>
      <point x="545" y="1152" type="line"/>
      <point x="1093" y="1152" type="line"/>
      <point x="1127" y="1386" type="line"/>
      <point x="216" y="1386" type="line"/>
      <point x="216" y="0" type="line"/>
      <point x="545" y="0" type="line"/>
      <point x="545" y="550" type="line"/>
      <point x="1031" y="550" type="line"/>
      <point x="1031" y="785" type="line"/>
      <point x="545" y="785" type="line"/>
    </contour>
  </outline>
</glyph>
<glyph name="G" format="2">
  <advance width="1200"/>
  <unicode hex="0047"/>
  <anchor x="654" y="0" name="bottom"/>
  <anchor x="660" y="1386" name="top"/>
  <outline>
    <contour>
      <point x="651" y="-34" type="curve" smooth="yes"/>
      <point x="840" y="-34"/>
      <point x="997" y="20"/>
      <point x="1136" y="106" type="curve"/>
      <point x="1136" y="795" type="line"/>
      <point x="620" y="795" type="line"/>
      <point x="652" y="565" type="line"/>
      <point x="826" y="565" type="line"/>
      <point x="826" y="248" type="line"/>
      <point x="777" y="222"/>
      <point x="719" y="206"/>
      <point x="654" y="206" type="curve" smooth="yes"/>
      <point x="470" y="206"/>
      <point x="383" y="331"/>
      <point x="383" y="694" type="curve" smooth="yes"/>
      <point x="383" y="1042"/>
      <point x="519" y="1182"/>
      <point x="705" y="1182" type="curve" smooth="yes"/>
      <point x="803" y="1182"/>
      <point x="874" y="1146"/>
      <point x="958" y="1072" type="curve"/>
      <point x="1130" y="1250" type="line"/>
      <point x="1022" y="1352"/>
      <point x="891" y="1421"/>
      <point x="689" y="1421" type="curve" smooth="yes"/>
      <point x="329" y="1421"/>
      <point x="45" y="1168"/>
      <point x="45" y="696" type="curve" smooth="yes"/>
      <point x="45" y="220"/>
      <point x="257" y="-34"/>
    </contour>
  </outline>
</glyph>
<glyph name="I" format="2">
  <advance width="1200"/>
  <unicode hex="0049"/>
  <anchor x="600" y="0" name="bottom"/>
  <anchor x="784" y="0" name="ogonek"/>
  <anchor x="600" y="1386" name="top"/>
  <anchor x="130" y="1386" name="topleft"/>
  <outline>
    <contour>
      <point x="1050" y="1386" type="line"/>
      <point x="150" y="1386" type="line"/>
      <point x="150" y="1146" type="line"/>
      <point x="436" y="1146" type="line"/>
      <point x="436" y="241" type="line"/>
      <point x="150" y="241" type="line"/>
      <point x="150" y="0" type="line"/>
      <point x="1050" y="0" type="line"/>
      <point x="1050" y="241" type="line"/>
      <point x="764" y="241" type="line"/>
      <point x="764" y="1146" type="line"/>
      <point x="1050" y="1146" type="line"/>
    </contour>
  </outline>
</glyph>
<glyph name="N" format="2">
  <advance width="1200"/>
  <unicode hex="004E"/>
  <anchor x="600" y="0" name="bottom"/>
  <anchor x="619" y="1386" name="top"/>
  <outline>
    <contour>
      <point x="698" y="0" type="line"/>
      <point x="1096" y="0" type="line"/>
      <point x="1096" y="1386" type="line"/>
      <point x="817" y="1386" type="line"/>
      <point x="817" y="855" type="line" smooth="yes"/>
      <point x="817" y="606"/>
      <point x="845" y="403"/>
      <point x="867" y="277" type="curve"/>
      <point x="513" y="1386" type="line"/>
      <point x="104" y="1386" type="line"/>
      <point x="104" y="0" type="line"/>
      <point x="383" y="0" type="line"/>
      <point x="383" y="523" type="line" smooth="yes"/>
      <point x="383" y="766"/>
      <point x="351" y="996"/>
      <point x="333" y="1115" type="curve"/>
    </contour>
  </outline>
</glyph>
<glyph name="P" format="2">
  <advance width="1200"/>
  <unicode hex="0050"/>
  <anchor x="600" y="0" name="bottom"/>
  <anchor x="600" y="1386" name="top"/>
  <anchor x="105" y="1386" name="topleft"/>
  <outline>
    <contour>
      <point x="815" y="934" type="curve" smooth="yes"/>
      <point x="815" y="771"/>
      <point x="728" y="699"/>
      <point x="582" y="699" type="curve" smooth="yes"/>
      <point x="453" y="699" type="line"/>
      <point x="453" y="1152" type="line"/>
      <point x="565" y="1152" type="line" smooth="yes"/>
      <point x="732" y="1152"/>
      <point x="815" y="1082"/>
    </contour>
    <contour>
      <point x="1153" y="935" type="curve" smooth="yes"/>
      <point x="1153" y="1238"/>
      <point x="937" y="1386"/>
      <point x="561" y="1386" type="curve" smooth="yes"/>
      <point x="125" y="1386" type="line"/>
      <point x="125" y="0" type="line"/>
      <point x="453" y="0" type="line"/>
      <point x="453" y="461" type="line"/>
      <point x="603" y="461" type="line" smooth="yes"/>
      <point x="931" y="461"/>
      <point x="1153" y="613"/>
    </contour>
  </outline>
</glyph>
<glyph name="S" format="2">
  <advance width="1200"/>
  <unicode hex="0053"/>
  <anchor x="600" y="0" name="bottom"/>
  <anchor x="620" y="1386" name="top"/>
  <outline>
    <contour>
      <point x="1136" y="405" type="curve" smooth="yes"/>
      <point x="1136" y="660"/>
      <point x="981" y="771"/>
      <point x="719" y="852" type="curve" smooth="yes"/>
      <point x="498" y="921"/>
      <point x="435" y="955"/>
      <point x="435" y="1044" type="curve" smooth="yes"/>
      <point x="435" y="1133"/>
      <point x="518" y="1180"/>
      <point x="643" y="1180" type="curve" smooth="yes"/>
      <point x="755" y="1180"/>
      <point x="865" y="1142"/>
      <point x="959" y="1064" type="curve"/>
      <point x="1114" y="1242" type="line"/>
      <point x="994" y="1356"/>
      <point x="831" y="1421"/>
      <point x="617" y="1421" type="curve" smooth="yes"/>
      <point x="330" y="1421"/>
      <point x="95" y="1273"/>
      <point x="95" y="1019" type="curve" smooth="yes"/>
      <point x="95" y="808"/>
      <point x="219" y="685"/>
      <point x="543" y="586" type="curve" smooth="yes"/>
      <point x="736" y="527"/>
      <point x="795" y="481"/>
      <point x="795" y="380" type="curve" smooth="yes"/>
      <point x="795" y="272"/>
      <point x="701" y="210"/>
      <point x="564" y="210" type="curve" smooth="yes"/>
      <point x="416" y="210"/>
      <point x="292" y="260"/>
      <point x="190" y="350" type="curve"/>
      <point x="24" y="166" type="line"/>
      <point x="140" y="52"/>
      <point x="310" y="-34"/>
      <point x="572" y="-34" type="curve" smooth="yes"/>
      <point x="925" y="-34"/>
      <point x="1136" y="146"/>
    </contour>
  </outline>
</glyph>
<glyph name="V" format="2">
  <advance width="1200"/>
  <unicode hex="0056"/>
  <anchor x="600" y="0" name="bottom"/>
  <anchor x="600" y="1386" name="top"/>
  <outline>
    <contour>
      <point x="606" y="256" type="line"/>
      <point x="347" y="1386" type="line"/>
      <point x="-1" y="1386" type="line"/>
      <point x="397" y="0" type="line"/>
      <point x="803" y="0" type="line"/>
      <point x="1203" y="1386" type="line"/>
      <point x="867" y="1386" type="line"/>
    </contour>
  </outline>
</glyph>
<glyph name="X" format="2">
  <advance width="1200"/>
  <unicode hex="0058"/>
  <anchor x="600" y="0" name="bottom"/>
  <anchor x="1118" y="0" name="bottomright"/>
  <anchor x="600" y="1386" name="top"/>
  <outline>
    <contour>
      <point x="38" y="1386" type="line"/>
      <point x="401" y="736" type="line"/>
      <point x="7" y="0" type="line"/>
      <point x="355" y="0" type="line"/>
      <point x="596" y="529" type="line"/>
      <point x="841" y="0" type="line"/>
      <point x="1194" y="0" type="line"/>
      <point x="792" y="750" type="line"/>
      <point x="1160" y="1386" type="line"/>
      <point x="814" y="1386" type="line"/>
      <point x="600" y="941" type="line"/>
      <point x="391" y="1386" type="line"/>
    </contour>
  </outline>
</glyph>
<glyph name="Z" format="2">
  <advance width="1200"/>
  <unicode hex="005A"/>
  <anchor x="600" y="0" name="bottom"/>
  <anchor x="626" y="1386" name="top"/>
  <outline>
    <contour>
      <point x="464" y="261" type="line"/>
      <point x="1109" y="1139" type="line"/>
      <point x="1109" y="1386" type="line"/>
      <point x="150" y="1386" type="line"/>
      <point x="150" y="1133" type="line"/>
      <point x="736" y="1133" type="line"/>
      <point x="78" y="245" type="line"/>
      <point x="78" y="0" type="line"/>
      <point x="1090" y="0" type="line"/>
      <point x="1124" y="261" type="line"/>
    </contour>
  </outline>
</glyph>
<glyph name="grave" format="2">
  <advance width="1200"/>
  <unicode hex="0060"/>
  <anchor x="600" y="1062" name="_top"/>
  <outline>
    <contour>
      <point x="797" y="1244" type="line"/>
      <point x="884" y="1404" type="line"/>
      <point x="448" y="1669" type="line"/>
      <point x="325" y="1432" type="line"/>
    </contour>
  </outline>
</glyph>
<glyph name="s" format="2">
  <advance width="1200"/>
  <unicode hex="0073"/>
  <anchor x="602" y="0" name="bottom"/>
  <anchor x="626" y="1062" name="top"/>
  <outline>
    <contour>
      <point x="566" y="192" type="curve" smooth="yes"/>
      <point x="442" y="192"/>
      <point x="336" y="240"/>
      <point x="254" y="304" type="curve"/>
      <point x="95" y="126" type="line"/>
      <point x="205" y="30"/>
      <point x="362" y="-34"/>
      <point x="568" y="-34" type="curve" smooth="yes"/>
      <point x="839" y="-34"/>
      <point x="1070" y="84"/>
      <point x="1070" y="317" type="curve" smooth="yes"/>
      <point x="1070" y="525"/>
      <point x="936" y="595"/>
      <point x="730" y="653" type="curve" smooth="yes"/>
      <point x="522" y="713"/>
      <point x="479" y="735"/>
      <point x="479" y="790" type="curve" smooth="yes"/>
      <point x="479" y="845"/>
      <point x="528" y="872"/>
      <point x="631" y="872" type="curve" smooth="yes"/>
      <point x="734" y="872"/>
      <point x="838" y="836"/>
      <point x="926" y="782" type="curve"/>
      <point x="1052" y="968" type="line"/>
      <point x="949" y="1043"/>
      <point x="811" y="1097"/>
      <point x="622" y="1097" type="curve" smooth="yes"/>
      <point x="323" y="1097"/>
      <point x="161" y="958"/>
      <point x="161" y="769" type="curve" smooth="yes"/>
      <point x="161" y="581"/>
      <point x="295" y="495"/>
      <point x="490" y="443" type="curve" smooth="yes"/>
      <point x="702" y="385"/>
      <point x="742" y="360"/>
      <point x="742" y="292" type="curve" smooth="yes"/>
      <point x="742" y="225"/>
      <point x="671" y="192"/>
    </contour>
  </outline>
</glyph>
<glyph name="w" format="2">
  <advance width="1200"/>
  <unicode hex="0077"/>
  <anchor x="600" y="0" name="bottom"/>
  <anchor x="600" y="1062" name="top"/>
  <outline>
    <contour>
      <point x="1042" y="0" type="line"/>
      <point x="1193" y="1062" type="line"/>
      <point x="914" y="1062" type="line"/>
      <point x="843" y="197" type="line"/>
      <point x="743" y="928" type="line"/>
      <point x="477" y="928" type="line"/>
      <point x="365" y="197" type="line"/>
      <point x="296" y="1062" type="line"/>
      <point x="7" y="1062" type="line"/>
      <point x="164" y="0" type="line"/>
      <point x="507" y="0" type="line"/>
      <point x="602" y="714" type="line"/>
      <point x="693" y="0" type="line"/>
    </contour>
  </outline>
</glyph>
<glyph name="x" format="2">
  <advance width="1200"/>
  <unicode hex="0078"/>
  <anchor x="600" y="0" name="bottom"/>
  <anchor x="1036" y="0" name="bottomright"/>
  <anchor x="600" y="1062" name="top"/>
  <outline>
    <contour>
      <point x="386" y="0" type="line"/>
      <point x="588" y="397" type="line"/>
      <point x="798" y="0" type="line"/>
      <point x="1156" y="0" type="line"/>
      <point x="790" y="570" type="line"/>
      <point x="1102" y="1062" type="line"/>
      <point x="766" y="1062" type="line"/>
      <point x="602" y="722" type="line"/>
      <point x="432" y="1062" type="line"/>
      <point x="78" y="1062" type="line"/>
      <point x="408" y="558" type="line"/>
      <point x="44" y="0" type="line"/>
    </contour>
  </outline>
</glyph>
<glyph name="y" format="2">
  <advance width="1200"/>
  <unicode hex="0079"/>
  <anchor x="600" y="-443" name="bottom "/>
  <anchor x="600" y="1062" name="top"/>
  <outline>
    <contour>
      <point x="1144" y="1062" type="line"/>
      <point x="820" y="1062" type="line"/>
      <point x="596" y="202" type="line"/>
      <point x="390" y="1062" type="line"/>
      <point x="56" y="1062" type="line"/>
      <point x="393" y="0" type="line"/>
      <point x="501" y="0" type="line"/>
      <point x="443" y="-137"/>
      <point x="368" y="-196"/>
      <point x="159" y="-222" type="curve"/>
      <point x="195" y="-445" type="line"/>
      <point x="518" y="-427"/>
      <point x="696" y="-282"/>
      <point x="790" y="0" type="curve" smooth="yes"/>
    </contour>
  </outline>
</glyph>
<glyph name="exclamdown" format="2">
  <advance width="1200"/>
  <unicode hex="00A1"/>
  <outline>
    <contour>
      <point x="726" y="479" type="line"/>
      <point x="473" y="479" type="line"/>
      <point x="432" y="-410" type="line"/>
      <point x="770" y="-410" type="line"/>
    </contour>
    <contour>
      <point x="600" y="1023" type="curve" smooth="yes"/>
      <point x="501" y="1023"/>
      <point x="419" y="940"/>
      <point x="419" y="841" type="curve" smooth="yes"/>
      <point x="419" y="743"/>
      <point x="501" y="662"/>
      <point x="600" y="662" type="curve" smooth="yes"/>
      <point x="701" y="662"/>
      <point x="781" y="743"/>
      <point x="781" y="841" type="curve" smooth="yes"/>
      <point x="781" y="940"/>
      <point x="701" y="1023"/>
    </contour>
  </outline>
</glyph>
<glyph name="currency" format="2">
  <advance width="1200"/>
  <unicode hex="00A4"/>
  <outline>
    <contour>
      <point x="203" y="1224" type="line"/>
      <point x="62" y="1083" type="line"/>
      <point x="221" y="922" type="line"/>
      <point x="181" y="856"/>
      <point x="160" y="774"/>
      <point x="160" y="684" type="curve" smooth="yes"/>
      <point x="160" y="590"/>
      <point x="183" y="510"/>
      <point x="223" y="446" type="curve"/>
      <point x="62" y="283" type="line"/>
      <point x="203" y="142" type="line"/>
      <point x="364" y="303" type="line"/>
      <point x="432" y="264"/>
      <point x="514" y="246"/>
      <point x="602" y="246" type="curve" smooth="yes"/>
      <point x="688" y="246"/>
      <point x="770" y="264"/>
      <point x="836" y="303" type="curve"/>
      <point x="997" y="146" type="line"/>
      <point x="1138" y="285" type="line"/>
      <point x="979" y="444" type="line"/>
      <point x="1019" y="508"/>
      <point x="1046" y="590"/>
      <point x="1046" y="684" type="curve" smooth="yes"/>
      <point x="1046" y="776"/>
      <point x="1021" y="856"/>
      <point x="981" y="922" type="curve"/>
      <point x="1138" y="1081" type="line"/>
      <point x="997" y="1222" type="line"/>
      <point x="836" y="1061" type="line"/>
      <point x="768" y="1102"/>
      <point x="688" y="1120"/>
      <point x="602" y="1120" type="curve" smooth="yes"/>
      <point x="512" y="1120"/>
      <point x="432" y="1101"/>
      <point x="366" y="1061" type="curve"/>
    </contour>
    <contour>
      <point x="602" y="906" type="curve" smooth="yes"/>
      <point x="731" y="906"/>
      <point x="796" y="823"/>
      <point x="796" y="684" type="curve" smooth="yes"/>
      <point x="796" y="543"/>
      <point x="731" y="460"/>
      <point x="602" y="460" type="curve" smooth="yes"/>
      <point x="471" y="460"/>
      <point x="404" y="543"/>
      <point x="404" y="684" type="curve" smooth="yes"/>
      <point x="404" y="823"/>
      <point x="471" y="906"/>
    </contour>
  </outline>
</glyph>
<glyph name="yen" format="2">
  <advance width="1200"/>
  <unicode hex="00A5"/>
  <outline>
    <contour>
      <point x="1184" y="1386" type="line"/>
      <point x="858" y="1386" type="line"/>
      <point x="612" y="816" type="line"/>
      <point x="604" y="816" type="line"/>
      <point x="352" y="1386" type="line"/>
      <point x="16" y="1386" type="line"/>
      <point x="372" y="704" type="line"/>
      <point x="179" y="704" type="line"/>
      <point x="179" y="541" type="line"/>
      <point x="444" y="541" type="line"/>
      <point x="444" y="404" type="line"/>
      <point x="179" y="404" type="line"/>
      <point x="179" y="239" type="line"/>
      <point x="444" y="239" type="line"/>
      <point x="444" y="0" type="line"/>
      <point x="760" y="0" type="line"/>
      <point x="760" y="239" type="line"/>
      <point x="1028" y="239" type="line"/>
      <point x="1028" y="404" type="line"/>
      <point x="760" y="404" type="line"/>
      <point x="760" y="541" type="line"/>
      <point x="1028" y="541" type="line"/>
      <point x="1028" y="704" type="line"/>
      <point x="829" y="704" type="line"/>
    </contour>
  </outline>
</glyph>
<glyph name="registered" format="2">
  <advance width="1200"/>
  <unicode hex="00AE"/>
  <outline>
    <contour>
      <point x="602" y="1517" type="curve" smooth="yes"/>
      <point x="287" y="1517"/>
      <point x="49" y="1280"/>
      <point x="49" y="968" type="curve" smooth="yes"/>
      <point x="49" y="659"/>
      <point x="287" y="423"/>
      <point x="602" y="423" type="curve" smooth="yes"/>
      <point x="913" y="423"/>
      <point x="1149" y="659"/>
      <point x="1149" y="968" type="curve" smooth="yes"/>
      <point x="1149" y="1280"/>
      <point x="913" y="1517"/>
    </contour>
    <contour>
      <point x="602" y="1384" type="curve" smooth="yes"/>
      <point x="830" y="1384"/>
      <point x="994" y="1204"/>
      <point x="994" y="968" type="curve" smooth="yes"/>
      <point x="994" y="735"/>
      <point x="830" y="558"/>
      <point x="602" y="558" type="curve" smooth="yes"/>
      <point x="372" y="558"/>
      <point x="204" y="735"/>
      <point x="204" y="968" type="curve" smooth="yes"/>
      <point x="204" y="1204"/>
      <point x="372" y="1384"/>
    </contour>
    <contour>
      <point x="560" y="1270" type="curve" smooth="yes"/>
      <point x="386" y="1270" type="line"/>
      <point x="386" y="702" type="line"/>
      <point x="530" y="702" type="line"/>
      <point x="530" y="908" type="line"/>
      <point x="576" y="908" type="line"/>
      <point x="701" y="702" type="line"/>
      <point x="866" y="702" type="line"/>
      <point x="711" y="938" type="line"/>
      <point x="779" y="964"/>
      <point x="828" y="1018"/>
      <point x="828" y="1094" type="curve" smooth="yes"/>
      <point x="828" y="1214"/>
      <point x="738" y="1270"/>
    </contour>
    <contour>
      <point x="574" y="1163" type="line" smooth="yes"/>
      <point x="648" y="1163"/>
      <point x="681" y="1140"/>
      <point x="681" y="1098" type="curve" smooth="yes"/>
      <point x="681" y="1046"/>
      <point x="642" y="1024"/>
      <point x="576" y="1024" type="curve" smooth="yes"/>
      <point x="530" y="1024" type="line"/>
      <point x="530" y="1163" type="line"/>
    </contour>
  </outline>
</glyph>
<glyph name="paragraph" format="2">
  <advance width="1200"/>
  <unicode hex="00B6"/>
  <outline>
    <contour>
      <point x="1163" y="1386" type="line"/>
      <point x="541" y="1386" type="line" smooth="yes"/>
      <point x="207" y="1386"/>
      <point x="37" y="1206"/>
      <point x="37" y="956" type="curve" smooth="yes"/>
      <point x="37" y="711"/>
      <point x="182" y="555"/>
      <point x="467" y="529" type="curve"/>
      <point x="467" y="-442" type="line"/>
      <point x="732" y="-420" type="line"/>
      <point x="732" y="1172" type="line"/>
      <point x="898" y="1172" type="line"/>
      <point x="898" y="-442" type="line"/>
      <point x="1163" y="-420" type="line"/>
    </contour>
  </outline>
</glyph>
<glyph name="questiondown" format="2">
  <advance width="1200"/>
  <unicode hex="00BF"/>
  <outline>
    <contour>
      <point x="634" y="1023" type="curve" smooth="yes"/>
      <point x="533" y="1023"/>
      <point x="454" y="940"/>
      <point x="454" y="841" type="curve" smooth="yes"/>
      <point x="454" y="743"/>
      <point x="533" y="662"/>
      <point x="634" y="662" type="curve" smooth="yes"/>
      <point x="734" y="662"/>
      <point x="815" y="743"/>
      <point x="815" y="841" type="curve" smooth="yes"/>
      <point x="815" y="940"/>
      <point x="734" y="1023"/>
    </contour>
    <contour>
      <point x="781" y="479" type="line"/>
      <point x="494" y="479" type="line"/>
      <point x="494" y="438" type="line" smooth="yes"/>
      <point x="494" y="191"/>
      <point x="122" y="216"/>
      <point x="122" y="-108" type="curve" smooth="yes"/>
      <point x="122" y="-286"/>
      <point x="278" y="-443"/>
      <point x="581" y="-443" type="curve" smooth="yes"/>
      <point x="791" y="-443"/>
      <point x="949" y="-362"/>
      <point x="1063" y="-228" type="curve"/>
      <point x="861" y="-74" type="line"/>
      <point x="789" y="-154"/>
      <point x="702" y="-194"/>
      <point x="612" y="-194" type="curve" smooth="yes"/>
      <point x="517" y="-194"/>
      <point x="452" y="-154"/>
      <point x="452" y="-81" type="curve" smooth="yes"/>
      <point x="452" y="85"/>
      <point x="781" y="73"/>
      <point x="781" y="415" type="curve" smooth="yes"/>
    </contour>
  </outline>
</glyph>
<glyph name="multiply" format="2">
  <advance width="1200"/>
  <unicode hex="00D7"/>
  <outline>
    <contour>
      <point x="830" y="1019" type="line"/>
      <point x="600" y="784" type="line"/>
      <point x="370" y="1019" type="line"/>
      <point x="195" y="844" type="line"/>
      <point x="430" y="614" type="line"/>
      <point x="195" y="384" type="line"/>
      <point x="370" y="209" type="line"/>
      <point x="600" y="444" type="line"/>
      <point x="830" y="209" type="line"/>
      <point x="1005" y="384" type="line"/>
      <point x="770" y="614" type="line"/>
      <point x="1005" y="844" type="line"/>
    </contour>
  </outline>
</glyph>
<glyph name="dcroat" format="2">
  <advance width="1200"/>
  <unicode hex="0111"/>
  <anchor x="563" y="0" name="bottom"/>
  <anchor x="563" y="532" name="center"/>
  <anchor x="563" y="1484" name="top"/>
  <anchor x="1064" y="1484" name="topright"/>
  <outline>
    <contour>
      <point x="1023" y="1371" type="line"/>
      <point x="463" y="1371" type="line"/>
      <point x="463" y="1186" type="line"/>
      <point x="707" y="1186" type="line"/>
      <point x="1183" y="1186" type="line"/>
      <point x="1183" y="1371" type="line"/>
    </contour>
    <component base="d" xOffset="-37"/>
  </outline>
</glyph>
<glyph name="Hbar" format="2">
  <advance width="1200"/>
  <unicode hex="0126"/>
  <outline>
    <contour>
      <point x="1087" y="1386" type="line"/>
      <point x="759" y="1386" type="line"/>
      <point x="759" y="849" type="line"/>
      <point x="441" y="849" type="line"/>
      <point x="441" y="1386" type="line"/>
      <point x="113" y="1386" type="line"/>
      <point x="113" y="0" type="line"/>
      <point x="441" y="0" type="line"/>
      <point x="441" y="594" type="line"/>
      <point x="759" y="594" type="line"/>
      <point x="759" y="0" type="line"/>
      <point x="1087" y="0" type="line"/>
    </contour>
    <contour>
      <point x="1196" y="1183" type="line"/>
      <point x="4" y="1183" type="line"/>
      <point x="4" y="1000" type="line"/>
      <point x="1196" y="1000" type="line"/>
    </contour>
  </outline>
</glyph>
<glyph name="kgreenlandic" format="2">
  <advance width="1200"/>
  <unicode hex="0138"/>
  <anchor x="600" y="0" name="bottom"/>
  <anchor x="600" y="1062" name="top"/>
  <outline>
    <contour>
      <point x="1148" y="1062" type="line"/>
      <point x="817" y="1062" type="line"/>
      <point x="468" y="552" type="line"/>
      <point x="816" y="0" type="line"/>
      <point x="1177" y="0" type="line"/>
      <point x="797" y="574" type="line"/>
    </contour>
    <contour>
      <point x="456" y="1062" type="line"/>
      <point x="140" y="1062" type="line"/>
      <point x="140" y="0" type="line"/>
      <point x="456" y="0" type="line"/>
    </contour>
  </outline>
</glyph>
<glyph name="Lslash" format="2">
  <advance width="1200"/>
  <unicode hex="0141"/>
  <anchor x="664" y="0" name="bottom"/>
  <anchor x="961" y="770" name="center"/>
  <anchor x="379" y="1386" name="top"/>
  <anchor x="643" y="1386" name="topright"/>
  <outline>
    <contour>
      <point x="125" y="402" type="line"/>
      <point x="900" y="884" type="line"/>
      <point x="791" y="1055" type="line"/>
      <point x="18" y="576" type="line"/>
    </contour>
    <component base="L" xOffset="29"/>
  </outline>
</glyph>
<glyph name="Tbar" format="2">
  <advance width="1200"/>
  <unicode hex="0166"/>
  <anchor x="598" y="0" name="bottom"/>
  <anchor x="782" y="0" name="bottomright"/>
  <anchor x="600" y="694" name="center"/>
  <anchor x="598" y="1386" name="top"/>
  <outline>
    <contour>
      <point x="201" y="628" type="line"/>
      <point x="997" y="628" type="line"/>
      <point x="997" y="813" type="line"/>
      <point x="201" y="813" type="line"/>
    </contour>
    <component base="T"/>
  </outline>
</glyph>
<glyph name="dotlessj" format="2">
  <advance width="1200"/>
  <unicode hex="0237"/>
  <anchor x="740" y="1062" name="top"/>
  <outline>
    <contour>
      <point x="945" y="1062" type="line"/>
      <point x="247" y="1062" type="line"/>
      <point x="247" y="846" type="line"/>
      <point x="629" y="846" type="line"/>
      <point x="629" y="288" type="line" smooth="yes"/>
      <point x="629" y="-21"/>
      <point x="461" y="-129"/>
      <point x="139" y="-202" type="curve"/>
      <point x="189" y="-443" type="line"/>
      <point x="685" y="-346"/>
      <point x="945" y="-153"/>
      <point x="945" y="308" type="curve" smooth="yes"/>
    </contour>
  </outline>
</glyph>
<glyph name="apostrophemod" format="2">
  <advance width="1200"/>
  <unicode hex="02BC"/>
  <outline>
    <contour>
      <point x="582" y="1516" type="curve" smooth="yes"/>
      <point x="491" y="1516"/>
      <point x="423" y="1446"/>
      <point x="423" y="1361" type="curve" smooth="yes"/>
      <point x="423" y="1303"/>
      <point x="451" y="1262"/>
      <point x="489" y="1232" type="curve"/>
      <point x="452" y="1074" type="line"/>
      <point x="611" y="1074" type="line"/>
      <point x="683" y="1209" type="line" smooth="yes"/>
      <point x="715" y="1270"/>
      <point x="739" y="1321"/>
      <point x="739" y="1369" type="curve" smooth="yes"/>
      <point x="739" y="1450"/>
      <point x="671" y="1516"/>
    </contour>
  </outline>
</glyph>
<glyph name="firsttonechinese" format="2">
  <advance width="1200"/>
  <unicode hex="02C9"/>
  <outline>
    <contour>
      <point x="905" y="1343" type="line"/>
      <point x="905" y="1562" type="line"/>
      <point x="293" y="1562" type="line"/>
      <point x="293" y="1343" type="line"/>
    </contour>
  </outline>
</glyph>
<glyph name="Archaicsampi" format="2">
  <advance width="1200"/>
  <unicode hex="0372"/>
  <anchor x="600" y="0" name="bottom"/>
  <anchor x="600" y="1386" name="top"/>
  <outline>
    <contour>
      <point x="436" y="0" type="line"/>
      <point x="764" y="0" type="line"/>
      <point x="764" y="1138" type="line"/>
      <point x="1169" y="1138" type="line"/>
      <point x="1169" y="1386" type="line"/>
      <point x="33" y="1386" type="line"/>
      <point x="33" y="1138" type="line"/>
      <point x="436" y="1138" type="line"/>
    </contour>
    <contour>
      <point x="33" y="799" type="line"/>
      <point x="277" y="799" type="line"/>
      <point x="277" y="1260" type="line"/>
      <point x="33" y="1260" type="line"/>
    </contour>
    <contour>
      <point x="925" y="799" type="line"/>
      <point x="1169" y="799" type="line"/>
      <point x="1169" y="1249" type="line"/>
      <point x="925" y="1249" type="line"/>
    </contour>
  </outline>
</glyph>
<glyph name="tonos" format="2">
  <advance width="1200"/>
  <unicode hex="0384"/>
  <anchor x="511" y="1062" name="_top"/>
  <outline>
    <contour>
      <point x="486" y="1694" type="line"/>
      <point x="410" y="1208" type="line"/>
      <point x="615" y="1174" type="line"/>
      <point x="792" y="1631" type="line"/>
    </contour>
  </outline>
</glyph>
<glyph name="gamma" format="2">
  <advance width="1200"/>
  <unicode hex="03B3"/>
  <anchor x="600" y="-443" name="bottom"/>
  <anchor x="600" y="1062" name="top"/>
  <outline>
    <contour>
      <point x="854" y="1090" type="line"/>
      <point x="604" y="278" type="line"/>
      <point x="557" y="639"/>
      <point x="454" y="918"/>
      <point x="342" y="1093" type="curve"/>
      <point x="30" y="981" type="line"/>
      <point x="207" y="757"/>
      <point x="344" y="449"/>
      <point x="452" y="26" type="curve"/>
      <point x="394" y="-139"/>
      <point x="396" y="-292"/>
      <point x="467" y="-440" type="curve"/>
      <point x="716" y="-414" type="line"/>
      <point x="684" y="-232"/>
      <point x="688" y="-92"/>
      <point x="750" y="52" type="curve" smooth="yes"/>
      <point x="1170" y="1017" type="line"/>
    </contour>
  </outline>
</glyph>
<glyph name="delta" format="2">
  <advance width="1200"/>
  <unicode hex="03B4"/>
  <anchor x="600" y="0" name="bottom"/>
  <anchor x="600" y="1484" name="top"/>
  <outline>
    <contour>
      <point x="638" y="1517" type="curve" smooth="yes"/>
      <point x="344" y="1517"/>
      <point x="198" y="1388"/>
      <point x="198" y="1210" type="curve" smooth="yes"/>
      <point x="198" y="1085"/>
      <point x="242" y="1011"/>
      <point x="394" y="931" type="curve"/>
      <point x="196" y="843"/>
      <point x="85" y="689"/>
      <point x="85" y="484" type="curve" smooth="yes"/>
      <point x="85" y="175"/>
      <point x="277" y="-34"/>
      <point x="602" y="-34" type="curve" smooth="yes"/>
      <point x="918" y="-34"/>
      <point x="1119" y="177"/>
      <point x="1119" y="496" type="curve" smooth="yes"/>
      <point x="1119" y="792"/>
      <point x="991" y="932"/>
      <point x="699" y="1050" type="curve" smooth="yes"/>
      <point x="545" y="1112"/>
      <point x="514" y="1142"/>
      <point x="514" y="1205" type="curve" smooth="yes"/>
      <point x="514" y="1256"/>
      <point x="557" y="1292"/>
      <point x="649" y="1292" type="curve" smooth="yes"/>
      <point x="732" y="1292"/>
      <point x="800" y="1270"/>
      <point x="870" y="1220" type="curve"/>
      <point x="1021" y="1392" type="line"/>
      <point x="930" y="1464"/>
      <point x="801" y="1517"/>
    </contour>
    <contour>
      <point x="568" y="852" type="curve"/>
      <point x="746" y="771"/>
      <point x="793" y="697"/>
      <point x="793" y="498" type="curve" smooth="yes"/>
      <point x="793" y="291"/>
      <point x="726" y="198"/>
      <point x="600" y="198" type="curve" smooth="yes"/>
      <point x="475" y="198"/>
      <point x="410" y="297"/>
      <point x="410" y="498" type="curve" smooth="yes"/>
      <point x="410" y="651"/>
      <point x="443" y="760"/>
    </contour>
  </outline>
</glyph>
<glyph name="epsilon" format="2">
  <advance width="1200"/>
  <unicode hex="03B5"/>
  <anchor x="638" y="0" name="bottom"/>
  <anchor x="630" y="1062" name="top"/>
  <outline>
    <contour>
      <point x="838" y="445" type="line"/>
      <point x="868" y="647" type="line"/>
      <point x="655" y="647" type="line" smooth="yes"/>
      <point x="540" y="647"/>
      <point x="487" y="696"/>
      <point x="487" y="766" type="curve" smooth="yes"/>
      <point x="487" y="841"/>
      <point x="554" y="878"/>
      <point x="671" y="878" type="curve" smooth="yes"/>
      <point x="771" y="878"/>
      <point x="870" y="858"/>
      <point x="946" y="815" type="curve"/>
      <point x="1085" y="986" type="line"/>
      <point x="957" y="1063"/>
      <point x="797" y="1097"/>
      <point x="630" y="1097" type="curve" smooth="yes"/>
      <point x="367" y="1097"/>
      <point x="167" y="994"/>
      <point x="167" y="810" type="curve" smooth="yes"/>
      <point x="167" y="690"/>
      <point x="239" y="604"/>
      <point x="411" y="566" type="curve"/>
      <point x="213" y="538"/>
      <point x="127" y="456"/>
      <point x="127" y="298" type="curve" smooth="yes"/>
      <point x="127" y="80"/>
      <point x="344" y="-34"/>
      <point x="649" y="-34" type="curve" smooth="yes"/>
      <point x="857" y="-34"/>
      <point x="1023" y="15"/>
      <point x="1148" y="97" type="curve"/>
      <point x="1006" y="273" type="line"/>
      <point x="910" y="218"/>
      <point x="802" y="192"/>
      <point x="675" y="192" type="curve" smooth="yes"/>
      <point x="528" y="192"/>
      <point x="455" y="241"/>
      <point x="455" y="324" type="curve" smooth="yes"/>
      <point x="455" y="401"/>
      <point x="506" y="445"/>
      <point x="641" y="445" type="curve" smooth="yes"/>
    </contour>
  </outline>
</glyph>
<glyph name="zeta" format="2">
  <advance width="1200"/>
  <unicode hex="03B6"/>
  <anchor x="600" y="-443" name="bottom"/>
  <anchor x="600" y="1484" name="top"/>
  <outline>
    <contour>
      <point x="1096" y="1484" type="line"/>
      <point x="291" y="1484" type="line"/>
      <point x="255" y="1254" type="line"/>
      <point x="466" y="1254" type="line" smooth="yes"/>
      <point x="639" y="1254"/>
      <point x="774" y="1256"/>
      <point x="830" y="1282" type="curve"/>
      <point x="366" y="1020"/>
      <point x="189" y="776"/>
      <point x="189" y="506" type="curve" smooth="yes"/>
      <point x="189" y="218"/>
      <point x="339" y="124"/>
      <point x="654" y="5" type="curve" smooth="yes"/>
      <point x="759" y="-33"/>
      <point x="790" y="-51"/>
      <point x="790" y="-94" type="curve" smooth="yes"/>
      <point x="790" y="-167"/>
      <point x="727" y="-210"/>
      <point x="635" y="-262" type="curve"/>
      <point x="750" y="-452" type="line"/>
      <point x="997" y="-346"/>
      <point x="1114" y="-226"/>
      <point x="1114" y="-57" type="curve" smooth="yes"/>
      <point x="1114" y="87"/>
      <point x="1031" y="141"/>
      <point x="778" y="238" type="curve" smooth="yes"/>
      <point x="576" y="314"/>
      <point x="517" y="365"/>
      <point x="517" y="518" type="curve" smooth="yes"/>
      <point x="517" y="741"/>
      <point x="694" y="982"/>
      <point x="1130" y="1294" type="curve"/>
    </contour>
  </outline>
</glyph>
<glyph name="eta" format="2">
  <advance width="1200"/>
  <unicode hex="03B7"/>
  <anchor x="264" y="0" name="bottom"/>
  <anchor x="619" y="1062" name="top"/>
  <outline>
    <contour>
      <point x="780" y="1097" type="curve" smooth="yes"/>
      <point x="654" y="1097"/>
      <point x="543" y="1045"/>
      <point x="447" y="937" type="curve"/>
      <point x="438" y="999"/>
      <point x="421" y="1056"/>
      <point x="401" y="1090" type="curve"/>
      <point x="109" y="1050" type="line"/>
      <point x="129" y="982"/>
      <point x="151" y="869"/>
      <point x="151" y="764" type="curve" smooth="yes"/>
      <point x="151" y="0" type="line"/>
      <point x="467" y="0" type="line"/>
      <point x="467" y="735" type="line"/>
      <point x="527" y="815"/>
      <point x="586" y="864"/>
      <point x="654" y="864" type="curve" smooth="yes"/>
      <point x="734" y="864"/>
      <point x="756" y="819"/>
      <point x="756" y="689" type="curve" smooth="yes"/>
      <point x="756" y="-443" type="line"/>
      <point x="1072" y="-410" type="line"/>
      <point x="1072" y="780" type="line" smooth="yes"/>
      <point x="1072" y="981"/>
      <point x="968" y="1097"/>
    </contour>
  </outline>
</glyph>
<glyph name="nu" format="2">
  <advance width="1200"/>
  <unicode hex="03BD"/>
  <anchor x="600" y="0" name="bottom"/>
  <anchor x="600" y="1062" name="top"/>
  <outline>
    <contour>
      <point x="408" y="0" type="curve"/>
      <point x="766" y="0" type="line"/>
      <point x="1150" y="1028" type="line"/>
      <point x="846" y="1097" type="line"/>
      <point x="600" y="238" type="line"/>
      <point x="543" y="651"/>
      <point x="443" y="950"/>
      <point x="320" y="1095" type="curve"/>
      <point x="31" y="996" type="line"/>
      <point x="189" y="844"/>
      <point x="324" y="425"/>
    </contour>
  </outline>
</glyph>
<glyph name="pi" format="2">
  <advance width="1200"/>
  <unicode hex="03C0"/>
  <anchor x="600" y="0" name="bottom"/>
  <anchor x="600" y="1062" name="top"/>
  <outline>
    <contour>
      <point x="493" y="866" type="line"/>
      <point x="193" y="866" type="line"/>
      <point x="193" y="0" type="line"/>
      <point x="493" y="0" type="line"/>
    </contour>
    <contour>
      <point x="1014" y="868" type="line"/>
      <point x="708" y="866" type="line"/>
      <point x="708" y="316" type="line" smooth="yes"/>
      <point x="708" y="100"/>
      <point x="824" y="-2"/>
      <point x="1009" y="-34" type="curve"/>
      <point x="1103" y="198" type="line"/>
      <point x="1040" y="227"/>
      <point x="1014" y="269"/>
      <point x="1014" y="358" type="curve" smooth="yes"/>
    </contour>
    <contour>
      <point x="1153" y="1062" type="line"/>
      <point x="229" y="1062" type="line" smooth="yes"/>
      <point x="146" y="1062"/>
      <point x="78" y="1046"/>
      <point x="8" y="1018" type="curve"/>
      <point x="60" y="802" type="line"/>
      <point x="130" y="828"/>
      <point x="168" y="834"/>
      <point x="326" y="834" type="curve" smooth="yes"/>
      <point x="1153" y="834" type="line"/>
    </contour>
  </outline>
</glyph>
<glyph name="sigmafinal" format="2">
  <advance width="1200"/>
  <unicode hex="03C2"/>
  <anchor x="600" y="-443" name="bottom"/>
  <anchor x="600" y="1062" name="top"/>
  <outline>
    <contour>
      <point x="714" y="1097" type="curve" smooth="yes"/>
      <point x="379" y="1097"/>
      <point x="155" y="864"/>
      <point x="155" y="558" type="curve"/>
      <point x="155" y="243"/>
      <point x="320" y="135"/>
      <point x="555" y="45" type="curve" smooth="yes"/>
      <point x="700" y="-12"/>
      <point x="743" y="-36"/>
      <point x="743" y="-96" type="curve" smooth="yes"/>
      <point x="743" y="-167"/>
      <point x="676" y="-211"/>
      <point x="585" y="-257" type="curve"/>
      <point x="704" y="-451" type="line"/>
      <point x="947" y="-346"/>
      <point x="1069" y="-226"/>
      <point x="1069" y="-59" type="curve" smooth="yes"/>
      <point x="1069" y="109"/>
      <point x="958" y="171"/>
      <point x="768" y="243" type="curve" smooth="yes"/>
      <point x="557" y="323"/>
      <point x="485" y="379"/>
      <point x="485" y="558" type="curve"/>
      <point x="485" y="769"/>
      <point x="592" y="854"/>
      <point x="737" y="854" type="curve" smooth="yes"/>
      <point x="822" y="854"/>
      <point x="898" y="830"/>
      <point x="968" y="778" type="curve"/>
      <point x="1105" y="966" type="line"/>
      <point x="1000" y="1050"/>
      <point x="875" y="1097"/>
    </contour>
  </outline>
</glyph>
<glyph name="tau" format="2">
  <advance width="1200"/>
  <unicode hex="03C4"/>
  <anchor x="600" y="0" name="bottom"/>
  <anchor x="600" y="1062" name="top"/>
  <outline>
    <contour>
      <point x="1072" y="1062" type="line"/>
      <point x="287" y="1062" type="line"/>
      <point x="180" y="1062"/>
      <point x="106" y="1052"/>
      <point x="43" y="1026" type="curve"/>
      <point x="90" y="808" type="line"/>
      <point x="154" y="826"/>
      <point x="237" y="830"/>
      <point x="296" y="830" type="curve" smooth="yes"/>
      <point x="1072" y="830" type="line"/>
    </contour>
    <contour>
      <point x="706" y="862" type="line"/>
      <point x="390" y="862" type="line"/>
      <point x="390" y="321" type="line" smooth="yes"/>
      <point x="390" y="104"/>
      <point x="529" y="-34"/>
      <point x="762" y="-34" type="curve" smooth="yes"/>
      <point x="897" y="-34"/>
      <point x="997" y="-2"/>
      <point x="1069" y="36" type="curve"/>
      <point x="993" y="247" type="line"/>
      <point x="949" y="229"/>
      <point x="897" y="215"/>
      <point x="841" y="215" type="curve" smooth="yes"/>
      <point x="758" y="215"/>
      <point x="706" y="248"/>
      <point x="706" y="332" type="curve" smooth="yes"/>
    </contour>
  </outline>
</glyph>
<glyph name="chi" format="2">
  <advance width="1200"/>
  <unicode hex="03C7"/>
  <anchor x="600" y="-443" name="bottom"/>
  <anchor x="600" y="1062" name="top"/>
  <outline>
    <contour>
      <point x="338" y="1095" type="curve"/>
      <point x="34" y="989" type="line"/>
      <point x="199" y="839"/>
      <point x="342" y="612"/>
      <point x="430" y="348" type="curve"/>
      <point x="596" y="149" type="line"/>
      <point x="856" y="-473" type="line"/>
      <point x="1168" y="-387" type="line"/>
      <point x="765" y="347" type="line"/>
      <point x="606" y="540" type="line"/>
      <point x="547" y="782"/>
      <point x="454" y="950"/>
    </contour>
    <contour>
      <point x="830" y="1093" type="line"/>
      <point x="606" y="540" type="line"/>
      <point x="430" y="348" type="line"/>
      <point x="30" y="-400" type="line"/>
      <point x="345" y="-472" type="line"/>
      <point x="596" y="149" type="line"/>
      <point x="765" y="347" type="line"/>
      <point x="1128" y="1029" type="line"/>
    </contour>
  </outline>
</glyph>
<glyph name="psi" format="2">
  <advance width="1200"/>
  <unicode hex="03C8"/>
  <anchor x="600" y="-443" name="bottom"/>
  <anchor x="600" y="1062" name="top"/>
  <outline>
    <contour>
      <point x="723" y="1062" type="line"/>
      <point x="479" y="1062" type="line"/>
      <point x="479" y="182" type="line"/>
      <point x="369" y="201"/>
      <point x="320" y="271"/>
      <point x="320" y="410" type="curve" smooth="yes"/>
      <point x="320" y="1062" type="line"/>
      <point x="57" y="1062" type="line"/>
      <point x="57" y="405" type="line" smooth="yes"/>
      <point x="57" y="178"/>
      <point x="154" y="8"/>
      <point x="479" y="-26" type="curve"/>
      <point x="479" y="-443" type="line"/>
      <point x="723" y="-410" type="line"/>
      <point x="723" y="-26" type="line"/>
      <point x="1039" y="24"/>
      <point x="1159" y="183"/>
      <point x="1159" y="512" type="curve" smooth="yes"/>
      <point x="1159" y="720"/>
      <point x="1137" y="899"/>
      <point x="1104" y="1062" type="curve"/>
      <point x="850" y="1062" type="line"/>
      <point x="876" y="858"/>
      <point x="894" y="699"/>
      <point x="894" y="520" type="curve" smooth="yes"/>
      <point x="894" y="292"/>
      <point x="864" y="212"/>
      <point x="723" y="182" type="curve"/>
    </contour>
  </outline>
</glyph>
<glyph name="betaSymbol" format="2">
  <advance width="1200"/>
  <unicode hex="03D0"/>
  <outline>
    <contour>
      <point x="668" y="1517" type="curve" smooth="yes"/>
      <point x="358" y="1517"/>
      <point x="105" y="1210"/>
      <point x="105" y="688" type="curve" smooth="yes"/>
      <point x="105" y="242"/>
      <point x="249" y="-34"/>
      <point x="596" y="-34" type="curve" smooth="yes"/>
      <point x="900" y="-34"/>
      <point x="1097" y="175"/>
      <point x="1097" y="462" type="curve" smooth="yes"/>
      <point x="1097" y="713"/>
      <point x="974" y="862"/>
      <point x="774" y="862" type="curve" smooth="yes"/>
      <point x="738" y="862"/>
      <point x="699" y="856"/>
      <point x="655" y="844" type="curve"/>
      <point x="904" y="926"/>
      <point x="1007" y="1060"/>
      <point x="1007" y="1230" type="curve" smooth="yes"/>
      <point x="1007" y="1376"/>
      <point x="908" y="1517"/>
    </contour>
    <contour>
      <point x="647" y="1296" type="curve" smooth="yes"/>
      <point x="693" y="1296"/>
      <point x="724" y="1266"/>
      <point x="724" y="1201" type="curve" smooth="yes"/>
      <point x="724" y="1064"/>
      <point x="662" y="958"/>
      <point x="474" y="887" type="curve" smooth="yes"/>
      <point x="392" y="855" type="line"/>
      <point x="390" y="648" type="line"/>
      <point x="464" y="679" type="line" smooth="yes"/>
      <point x="525" y="703"/>
      <point x="566" y="716"/>
      <point x="611" y="716" type="curve" smooth="yes"/>
      <point x="719" y="716"/>
      <point x="770" y="620"/>
      <point x="770" y="452" type="curve" smooth="yes"/>
      <point x="770" y="283"/>
      <point x="704" y="196"/>
      <point x="598" y="196" type="curve" smooth="yes"/>
      <point x="477" y="196"/>
      <point x="424" y="331"/>
      <point x="424" y="728" type="curve" smooth="yes"/>
      <point x="424" y="1167"/>
      <point x="543" y="1296"/>
    </contour>
  </outline>
</glyph>
<glyph name="phiSymbol" format="2">
  <advance width="1200"/>
  <unicode hex="03D5"/>
  <outline>
    <contour>
      <point x="709" y="1056" type="curve"/>
      <point x="709" y="871" type="line"/>
      <point x="811" y="865"/>
      <point x="885" y="780"/>
      <point x="885" y="536" type="curve" smooth="yes"/>
      <point x="885" y="299"/>
      <point x="819" y="200"/>
      <point x="707" y="194" type="curve"/>
      <point x="709" y="8" type="line"/>
      <point x="934" y="16"/>
      <point x="1161" y="175"/>
      <point x="1161" y="536" type="curve" smooth="yes"/>
      <point x="1161" y="894"/>
      <point x="934" y="1048"/>
    </contour>
    <contour>
      <point x="487" y="1056" type="line"/>
      <point x="264" y="1048"/>
      <point x="37" y="889"/>
      <point x="37" y="528" type="curve" smooth="yes"/>
      <point x="37" y="169"/>
      <point x="266" y="16"/>
      <point x="487" y="8" type="curve"/>
      <point x="491" y="194" type="line"/>
      <point x="387" y="200"/>
      <point x="313" y="298"/>
      <point x="313" y="528" type="curve" smooth="yes"/>
      <point x="313" y="772"/>
      <point x="381" y="865"/>
      <point x="491" y="869" type="curve"/>
    </contour>
    <contour>
      <point x="746" y="1515" type="line"/>
      <point x="450" y="1484" type="line"/>
      <point x="450" y="1016" type="line"/>
      <point x="475" y="885" type="line"/>
      <point x="475" y="176" type="line"/>
      <point x="452" y="42" type="line"/>
      <point x="450" y="-443" type="line"/>
      <point x="746" y="-410" type="line"/>
      <point x="748" y="42" type="line"/>
      <point x="723" y="176" type="line"/>
      <point x="723" y="885" type="line"/>
      <point x="746" y="1016" type="line"/>
    </contour>
  </outline>
</glyph>
<glyph name="piSymbol" format="2">
  <advance width="1200"/>
  <unicode hex="03D6"/>
  <anchor x="600" y="0" name="bottom"/>
  <anchor x="600" y="1062" name="top"/>
  <outline>
    <contour>
      <point x="25" y="826" type="line"/>
      <point x="85" y="844"/>
      <point x="113" y="848"/>
      <point x="205" y="848" type="curve" smooth="yes"/>
      <point x="1159" y="850" type="line"/>
      <point x="1159" y="1062" type="line"/>
      <point x="307" y="1062" type="line" smooth="yes"/>
      <point x="103" y="1062"/>
      <point x="43" y="1048"/>
      <point x="-31" y="1016" type="curve"/>
    </contour>
    <contour>
      <point x="940" y="1014" type="curve"/>
      <point x="798" y="1014" type="line"/>
      <point x="838" y="837"/>
      <point x="863" y="672"/>
      <point x="863" y="501" type="curve" smooth="yes"/>
      <point x="863" y="291"/>
      <point x="851" y="198"/>
      <point x="783" y="198" type="curve" smooth="yes"/>
      <point x="718" y="198"/>
      <point x="704" y="266"/>
      <point x="704" y="478" type="curve" smooth="yes"/>
      <point x="704" y="678" type="line"/>
      <point x="487" y="645" type="line"/>
      <point x="487" y="468" type="line" smooth="yes"/>
      <point x="487" y="268"/>
      <point x="473" y="198"/>
      <point x="411" y="198" type="curve" smooth="yes"/>
      <point x="346" y="198"/>
      <point x="326" y="291"/>
      <point x="326" y="501" type="curve" smooth="yes"/>
      <point x="326" y="673"/>
      <point x="349" y="835"/>
      <point x="390" y="1012" type="curve"/>
      <point x="246" y="1012" type="line"/>
      <point x="134" y="849"/>
      <point x="59" y="660"/>
      <point x="59" y="464" type="curve" smooth="yes"/>
      <point x="59" y="137"/>
      <point x="180" y="-34"/>
      <point x="370" y="-34" type="curve" smooth="yes"/>
      <point x="475" y="-34"/>
      <point x="549" y="27"/>
      <point x="592" y="175" type="curve"/>
      <point x="634" y="23"/>
      <point x="714" y="-34"/>
      <point x="827" y="-34" type="curve" smooth="yes"/>
      <point x="1015" y="-34"/>
      <point x="1130" y="141"/>
      <point x="1130" y="464" type="curve" smooth="yes"/>
      <point x="1130" y="662"/>
      <point x="1054" y="849"/>
    </contour>
  </outline>
</glyph>
<glyph name="kaiSymbol" format="2">
  <advance width="1200"/>
  <unicode hex="03D7"/>
  <anchor x="600" y="-443" name="bottom"/>
  <anchor x="600" y="1062" name="top"/>
  <outline>
    <contour>
      <point x="726" y="-455" type="curve" smooth="yes"/>
      <point x="964" y="-455"/>
      <point x="1111" y="-328"/>
      <point x="1111" y="-73" type="curve" smooth="yes"/>
      <point x="1111" y="178" type="line"/>
      <point x="835" y="127" type="line"/>
      <point x="835" y="-101" type="line" smooth="yes"/>
      <point x="835" y="-186"/>
      <point x="784" y="-224"/>
      <point x="706" y="-224" type="curve" smooth="yes"/>
      <point x="634" y="-224"/>
      <point x="592" y="-208"/>
      <point x="542" y="-184" type="curve"/>
      <point x="435" y="-369" type="line"/>
      <point x="499" y="-417"/>
      <point x="598" y="-455"/>
    </contour>
    <contour>
      <point x="360" y="-26" type="line"/>
      <point x="827" y="718" type="line"/>
      <point x="1025" y="1020" type="line"/>
      <point x="835" y="1089" type="line"/>
      <point x="368" y="346" type="line"/>
      <point x="173" y="44" type="line"/>
    </contour>
    <contour>
      <point x="1020" y="6" type="curve"/>
      <point x="1111" y="180" type="line"/>
      <point x="1047" y="212"/>
      <point x="1025" y="244"/>
      <point x="1025" y="358" type="curve" smooth="yes"/>
      <point x="1025" y="1020" type="line"/>
      <point x="827" y="718" type="line"/>
      <point x="788" y="590"/>
      <point x="734" y="400"/>
      <point x="734" y="276" type="curve" smooth="yes"/>
      <point x="734" y="106"/>
      <point x="843" y="42"/>
    </contour>
    <contour>
      <point x="178" y="1097" type="curve"/>
      <point x="87" y="870" type="line"/>
      <point x="151" y="838"/>
      <point x="173" y="800"/>
      <point x="173" y="706" type="curve" smooth="yes"/>
      <point x="173" y="44" type="line"/>
      <point x="368" y="346" type="line"/>
      <point x="407" y="474"/>
      <point x="464" y="664"/>
      <point x="464" y="787" type="curve" smooth="yes"/>
      <point x="464" y="958"/>
      <point x="356" y="1061"/>
    </contour>
  </outline>
</glyph>
<glyph name="kappaSymbol" format="2">
  <advance width="1200"/>
  <unicode hex="03F0"/>
  <anchor x="600" y="0" name="bottom"/>
  <anchor x="600" y="1062" name="top"/>
  <outline>
    <contour>
      <point x="363" y="-26" type="line"/>
      <point x="828" y="718" type="line"/>
      <point x="1025" y="1014" type="line"/>
      <point x="837" y="1089" type="line"/>
      <point x="373" y="346" type="line"/>
      <point x="177" y="44" type="line"/>
    </contour>
    <contour>
      <point x="1020" y="-34" type="curve"/>
      <point x="1111" y="194" type="line"/>
      <point x="1047" y="226"/>
      <point x="1025" y="263"/>
      <point x="1025" y="358" type="curve" smooth="yes"/>
      <point x="1025" y="1014" type="line"/>
      <point x="828" y="718" type="line"/>
      <point x="789" y="590"/>
      <point x="734" y="400"/>
      <point x="734" y="276" type="curve" smooth="yes"/>
      <point x="734" y="106"/>
      <point x="843" y="2"/>
    </contour>
    <contour>
      <point x="182" y="1097" type="curve"/>
      <point x="91" y="870" type="line"/>
      <point x="155" y="838"/>
      <point x="177" y="800"/>
      <point x="177" y="706" type="curve" smooth="yes"/>
      <point x="177" y="44" type="line"/>
      <point x="373" y="346" type="line"/>
      <point x="413" y="474"/>
      <point x="468" y="664"/>
      <point x="468" y="787" type="curve" smooth="yes"/>
      <point x="468" y="958"/>
      <point x="359" y="1061"/>
    </contour>
  </outline>
</glyph>
<glyph name="Dje-cy" format="2">
  <advance width="1200"/>
  <unicode hex="0402"/>
  <anchor x="600" y="-443" name="bottom"/>
  <anchor x="600" y="1386" name="top"/>
  <outline>
    <contour>
      <point x="568" y="1152" type="line"/>
      <point x="847" y="1152" type="line"/>
      <point x="881" y="1386" type="line"/>
      <point x="-16" y="1386" type="line"/>
      <point x="-16" y="1152" type="line"/>
      <point x="261" y="1152" type="line"/>
      <point x="261" y="0" type="line"/>
      <point x="568" y="0" type="line"/>
      <point x="568" y="640" type="line"/>
      <point x="606" y="676"/>
      <point x="653" y="705"/>
      <point x="720" y="705" type="curve" smooth="yes"/>
      <point x="818" y="705"/>
      <point x="857" y="658"/>
      <point x="857" y="533" type="curve" smooth="yes"/>
      <point x="857" y="204" type="line" smooth="yes"/>
      <point x="857" y="35"/>
      <point x="825" y="-48"/>
      <point x="660" y="-116" type="curve"/>
      <point x="745" y="-340" type="line"/>
      <point x="979" y="-262"/>
      <point x="1163" y="-131"/>
      <point x="1163" y="198" type="curve" smooth="yes"/>
      <point x="1163" y="504" type="line" smooth="yes"/>
      <point x="1163" y="795"/>
      <point x="1039" y="941"/>
      <point x="805" y="941" type="curve" smooth="yes"/>
      <point x="709" y="941"/>
      <point x="632" y="906"/>
      <point x="568" y="852" type="curve"/>
    </contour>
  </outline>
</glyph>
<glyph name="Ka-cy" format="2">
  <advance width="1200"/>
  <unicode hex="041A"/>
  <anchor x="600" y="0" name="bottom"/>
  <anchor x="1140" y="0" name="bottomright"/>
  <anchor x="648" y="1386" name="top"/>
  <outline>
    <contour>
      <point x="557" y="603" type="line"/>
      <point x="859" y="0" type="line"/>
      <point x="1217" y="0" type="line"/>
      <point x="826" y="757" type="line"/>
      <point x="1179" y="1386" type="line"/>
      <point x="860" y="1386" type="line"/>
      <point x="553" y="841" type="line"/>
      <point x="432" y="841" type="line"/>
      <point x="432" y="1386" type="line"/>
      <point x="104" y="1386" type="line"/>
      <point x="104" y="0" type="line"/>
      <point x="432" y="0" type="line"/>
      <point x="432" y="603" type="line"/>
    </contour>
  </outline>
</glyph>
<glyph name="Pe-cy" format="2">
  <advance width="1200"/>
  <unicode hex="041F"/>
  <anchor x="600" y="0" name="bottom"/>
  <anchor x="1116" y="0" name="bottomright"/>
  <anchor x="600" y="1386" name="top"/>
  <outline>
    <contour>
      <point x="768" y="0" type="line"/>
      <point x="1096" y="0" type="line"/>
      <point x="1096" y="1386" type="line"/>
      <point x="104" y="1386" type="line"/>
      <point x="104" y="0" type="line"/>
      <point x="432" y="0" type="line"/>
      <point x="432" y="1134" type="line"/>
      <point x="768" y="1134" type="line"/>
    </contour>
  </outline>
</glyph>
<glyph name="Ef-cy" format="2">
  <advance width="1200"/>
  <unicode hex="0424"/>
  <anchor x="600" y="0" name="bottom"/>
  <anchor x="600" y="1386" name="top"/>
  <outline>
    <contour>
      <point x="713" y="1459" type="line"/>
      <point x="487" y="1459" type="line"/>
      <point x="487" y="1312" type="line"/>
      <point x="161" y="1290"/>
      <point x="8" y="1090"/>
      <point x="8" y="700" type="curve" smooth="yes"/>
      <point x="8" y="311"/>
      <point x="163" y="95"/>
      <point x="487" y="76" type="curve"/>
      <point x="487" y="-77" type="line"/>
      <point x="713" y="-77" type="line"/>
      <point x="713" y="76" type="line"/>
      <point x="1035" y="96"/>
      <point x="1192" y="313"/>
      <point x="1192" y="700" type="curve" smooth="yes"/>
      <point x="1192" y="1090"/>
      <point x="1037" y="1290"/>
      <point x="713" y="1312" type="curve"/>
    </contour>
    <contour>
      <point x="506" y="1135" type="curve"/>
      <point x="506" y="256" type="line"/>
      <point x="356" y="272"/>
      <point x="315" y="403"/>
      <point x="315" y="700" type="curve" smooth="yes"/>
      <point x="315" y="1001"/>
      <point x="364" y="1120"/>
    </contour>
    <contour>
      <point x="694" y="1135" type="line"/>
      <point x="838" y="1120"/>
      <point x="885" y="1001"/>
      <point x="885" y="700" type="curve" smooth="yes"/>
      <point x="885" y="403"/>
      <point x="844" y="272"/>
      <point x="694" y="256" type="curve"/>
    </contour>
  </outline>
</glyph>
<glyph name="Che-cy" format="2">
  <advance width="1200"/>
  <unicode hex="0427"/>
  <anchor x="600" y="0" name="bottom"/>
  <anchor x="748" y="0" name="bottomleft"/>
  <anchor x="1116" y="0" name="bottomright"/>
  <anchor x="572" y="1386" name="top"/>
  <outline>
    <contour>
      <point x="377" y="1386" type="line"/>
      <point x="49" y="1386" type="line"/>
      <point x="49" y="867" type="line" smooth="yes"/>
      <point x="49" y="557"/>
      <point x="209" y="395"/>
      <point x="481" y="395" type="curve" smooth="yes"/>
      <point x="609" y="395"/>
      <point x="711" y="437"/>
      <point x="793" y="506" type="curve"/>
      <point x="786" y="728" type="line"/>
      <point x="742" y="681"/>
      <point x="681" y="639"/>
      <point x="571" y="639" type="curve" smooth="yes"/>
      <point x="434" y="639"/>
      <point x="377" y="703"/>
      <point x="377" y="878" type="curve" smooth="yes"/>
    </contour>
    <contour>
      <point x="1096" y="1386" type="line"/>
      <point x="768" y="1386" type="line"/>
      <point x="768" y="0" type="line"/>
      <point x="1096" y="0" type="line"/>
    </contour>
  </outline>
</glyph>
<glyph name="Iu-cy" format="2">
  <advance width="1200"/>
  <unicode hex="042E"/>
  <anchor x="600" y="0" name="bottom"/>
  <anchor x="600" y="1386" name="top"/>
  <outline>
    <contour>
      <point x="788" y="1421" type="curve" smooth="yes"/>
      <point x="526" y="1421"/>
      <point x="422" y="1205"/>
      <point x="406" y="827" type="curve"/>
      <point x="313" y="827" type="line"/>
      <point x="313" y="1386" type="line"/>
      <point x="63" y="1386" type="line"/>
      <point x="63" y="0" type="line"/>
      <point x="313" y="0" type="line"/>
      <point x="313" y="605" type="line"/>
      <point x="404" y="605" type="line"/>
      <point x="414" y="189"/>
      <point x="509" y="-34"/>
      <point x="788" y="-34" type="curve" smooth="yes"/>
      <point x="1077" y="-34"/>
      <point x="1176" y="214"/>
      <point x="1176" y="694" type="curve" smooth="yes"/>
      <point x="1176" y="1179"/>
      <point x="1082" y="1421"/>
    </contour>
    <contour>
      <point x="788" y="1205" type="curve" smooth="yes"/>
      <point x="881" y="1205"/>
      <point x="904" y="1104"/>
      <point x="904" y="694" type="curve" smooth="yes"/>
      <point x="904" y="287"/>
      <point x="879" y="182"/>
      <point x="788" y="182" type="curve" smooth="yes"/>
      <point x="694" y="182"/>
      <point x="671" y="289"/>
      <point x="671" y="696" type="curve" smooth="yes"/>
      <point x="671" y="1104"/>
      <point x="698" y="1205"/>
    </contour>
  </outline>
</glyph>
<glyph name="Ia-cy" format="2">
  <advance width="1200"/>
  <unicode hex="042F"/>
  <anchor x="600" y="0" name="bottom"/>
  <anchor x="600" y="1386" name="top"/>
  <outline>
    <contour>
      <point x="1096" y="1386" type="line"/>
      <point x="643" y="1386" type="line" smooth="yes"/>
      <point x="268" y="1386"/>
      <point x="74" y="1240"/>
      <point x="74" y="947" type="curve" smooth="yes"/>
      <point x="74" y="751"/>
      <point x="156" y="633"/>
      <point x="310" y="563" type="curve"/>
      <point x="4" y="0" type="line"/>
      <point x="357" y="0" type="line"/>
      <point x="599" y="501" type="line"/>
      <point x="768" y="501" type="line"/>
      <point x="768" y="0" type="line"/>
      <point x="1096" y="0" type="line"/>
    </contour>
    <contour>
      <point x="768" y="1156" type="line"/>
      <point x="768" y="725" type="line"/>
      <point x="655" y="725" type="line" smooth="yes"/>
      <point x="502" y="725"/>
      <point x="412" y="780"/>
      <point x="412" y="939" type="curve" smooth="yes"/>
      <point x="412" y="1082"/>
      <point x="493" y="1156"/>
      <point x="648" y="1156" type="curve" smooth="yes"/>
    </contour>
  </outline>
</glyph>
<glyph name="zhe-cy" format="2">
  <advance width="1200"/>
  <unicode hex="0436"/>
  <anchor x="600" y="0" name="bottom"/>
  <anchor x="1172" y="0" name="bottomright"/>
  <anchor x="600" y="1062" name="top"/>
  <outline>
    <contour>
      <point x="493" y="0" type="line"/>
      <point x="707" y="0" type="line"/>
      <point x="707" y="465" type="line"/>
      <point x="759" y="465" type="line"/>
      <point x="935" y="0" type="line"/>
      <point x="1213" y="0" type="line"/>
      <point x="969" y="570" type="line"/>
      <point x="1204" y="1062" type="line"/>
      <point x="937" y="1062" type="line"/>
      <point x="763" y="640" type="line"/>
      <point x="707" y="640" type="line"/>
      <point x="707" y="1062" type="line"/>
      <point x="493" y="1062" type="line"/>
      <point x="493" y="640" type="line"/>
      <point x="437" y="640" type="line"/>
      <point x="271" y="1062" type="line"/>
      <point x="-4" y="1062" type="line"/>
      <point x="233" y="570" type="line"/>
      <point x="-11" y="0" type="line"/>
      <point x="272" y="0" type="line"/>
      <point x="441" y="465" type="line"/>
      <point x="493" y="465" type="line"/>
    </contour>
  </outline>
</glyph>
<glyph name="ze-cy" format="2">
  <advance width="1200"/>
  <unicode hex="0437"/>
  <anchor x="590" y="0" name="bottom"/>
  <anchor x="572" y="1054" name="top"/>
  <outline>
    <contour>
      <point x="337" y="647" type="line"/>
      <point x="319" y="445" type="line"/>
      <point x="551" y="445" type="line" smooth="yes"/>
      <point x="682" y="445"/>
      <point x="745" y="401"/>
      <point x="745" y="324" type="curve" smooth="yes"/>
      <point x="745" y="243"/>
      <point x="676" y="192"/>
      <point x="533" y="192" type="curve" smooth="yes"/>
      <point x="402" y="192"/>
      <point x="300" y="222"/>
      <point x="188" y="288" type="curve"/>
      <point x="52" y="106" type="line"/>
      <point x="165" y="21"/>
      <point x="325" y="-34"/>
      <point x="537" y="-34" type="curve" smooth="yes"/>
      <point x="844" y="-34"/>
      <point x="1073" y="84"/>
      <point x="1073" y="308" type="curve" smooth="yes"/>
      <point x="1073" y="470"/>
      <point x="956" y="541"/>
      <point x="764" y="562" type="curve"/>
      <point x="927" y="604"/>
      <point x="1019" y="682"/>
      <point x="1019" y="802" type="curve" smooth="yes"/>
      <point x="1019" y="992"/>
      <point x="817" y="1097"/>
      <point x="542" y="1097" type="curve" smooth="yes"/>
      <point x="369" y="1097"/>
      <point x="209" y="1053"/>
      <point x="86" y="967" type="curve"/>
      <point x="222" y="799" type="line"/>
      <point x="308" y="852"/>
      <point x="417" y="878"/>
      <point x="523" y="878" type="curve" smooth="yes"/>
      <point x="634" y="878"/>
      <point x="701" y="841"/>
      <point x="701" y="766" type="curve" smooth="yes"/>
      <point x="701" y="694"/>
      <point x="642" y="647"/>
      <point x="529" y="647" type="curve" smooth="yes"/>
    </contour>
  </outline>
</glyph>
<glyph name="em-cy" format="2">
  <advance width="1200"/>
  <unicode hex="043C"/>
  <anchor x="600" y="0" name="bottom"/>
  <anchor x="1181" y="0" name="bottomright"/>
  <anchor x="600" y="1062" name="top"/>
  <outline>
    <contour>
      <point x="1087" y="1062" type="line"/>
      <point x="736" y="1062" type="line"/>
      <point x="604" y="408" type="line"/>
      <point x="452" y="1062" type="line"/>
      <point x="111" y="1062" type="line"/>
      <point x="41" y="0" type="line"/>
      <point x="316" y="0" type="line"/>
      <point x="329" y="351" type="line" smooth="yes"/>
      <point x="335" y="500"/>
      <point x="339" y="636"/>
      <point x="323" y="775" type="curve"/>
      <point x="331" y="775" type="line"/>
      <point x="487" y="168" type="line"/>
      <point x="715" y="168" type="line"/>
      <point x="861" y="775" type="line"/>
      <point x="869" y="775" type="line"/>
      <point x="857" y="633"/>
      <point x="857" y="496"/>
      <point x="863" y="362" type="curve" smooth="yes"/>
      <point x="878" y="0" type="line"/>
      <point x="1159" y="0" type="line"/>
    </contour>
  </outline>
</glyph>
<glyph name="iu-cy" format="2">
  <advance width="1200"/>
  <unicode hex="044E"/>
  <anchor x="600" y="0" name="bottom"/>
  <anchor x="600" y="1062" name="top"/>
  <outline>
    <contour>
      <point x="795" y="1097" type="curve" smooth="yes"/>
      <point x="552" y="1097"/>
      <point x="445" y="915"/>
      <point x="426" y="645" type="curve"/>
      <point x="329" y="645" type="line"/>
      <point x="329" y="1062" type="line"/>
      <point x="63" y="1062" type="line"/>
      <point x="63" y="0" type="line"/>
      <point x="329" y="0" type="line"/>
      <point x="329" y="433" type="line"/>
      <point x="424" y="433" type="line"/>
      <point x="441" y="141"/>
      <point x="546" y="-34"/>
      <point x="795" y="-34" type="curve" smooth="yes"/>
      <point x="1073" y="-34"/>
      <point x="1173" y="182"/>
      <point x="1173" y="534" type="curve" smooth="yes"/>
      <point x="1173" y="876"/>
      <point x="1071" y="1097"/>
    </contour>
    <contour>
      <point x="795" y="889" type="curve" smooth="yes"/>
      <point x="881" y="889"/>
      <point x="902" y="781"/>
      <point x="902" y="534" type="curve" smooth="yes"/>
      <point x="902" y="280"/>
      <point x="885" y="174"/>
      <point x="795" y="174" type="curve" smooth="yes"/>
      <point x="708" y="174"/>
      <point x="691" y="280"/>
      <point x="691" y="532" type="curve" smooth="yes"/>
      <point x="691" y="786"/>
      <point x="710" y="889"/>
    </contour>
  </outline>
</glyph>
<glyph name="ia-cy" format="2">
  <advance width="1200"/>
  <unicode hex="044F"/>
  <anchor x="600" y="0" name="bottom"/>
  <anchor x="600" y="1062" name="top"/>
  <outline>
    <contour>
      <point x="734" y="0" type="line"/>
      <point x="1050" y="0" type="line"/>
      <point x="1050" y="1062" type="line"/>
      <point x="629" y="1062" type="line"/>
      <point x="281" y="1062"/>
      <point x="119" y="917"/>
      <point x="119" y="709" type="curve" smooth="yes"/>
      <point x="119" y="571"/>
      <point x="203" y="476"/>
      <point x="332" y="424" type="curve"/>
      <point x="541" y="371" type="line"/>
      <point x="766" y="371" type="line"/>
      <point x="766" y="563" type="line"/>
      <point x="631" y="563" type="line" smooth="yes"/>
      <point x="502" y="563"/>
      <point x="443" y="619"/>
      <point x="443" y="718" type="curve" smooth="yes"/>
      <point x="443" y="811"/>
      <point x="494" y="863"/>
      <point x="625" y="863" type="curve" smooth="yes"/>
      <point x="734" y="863" type="line"/>
    </contour>
    <contour>
      <point x="40" y="0" type="line"/>
      <point x="374" y="0" type="line"/>
      <point x="589" y="399" type="line"/>
      <point x="316" y="466" type="line"/>
    </contour>
  </outline>
</glyph>
<glyph name="lje-cy" format="2">
  <advance width="1200"/>
  <unicode hex="0459"/>
  <anchor x="600" y="0" name="bottom"/>
  <anchor x="600" y="1062" name="top"/>
  <outline>
    <contour>
      <point x="763" y="1062" type="line"/>
      <point x="140" y="1062" type="line"/>
      <point x="123" y="663" type="line" smooth="yes"/>
      <point x="107" y="276"/>
      <point x="64" y="214"/>
      <point x="-17" y="156" type="curve"/>
      <point x="84" y="-40" type="line"/>
      <point x="300" y="70"/>
      <point x="363" y="182"/>
      <point x="381" y="640" type="curve" smooth="yes"/>
      <point x="389" y="852" type="line"/>
      <point x="508" y="852" type="line"/>
      <point x="508" y="0" type="line"/>
      <point x="805" y="0" type="line" smooth="yes"/>
      <point x="1045" y="0"/>
      <point x="1203" y="124"/>
      <point x="1203" y="368" type="curve" smooth="yes"/>
      <point x="1203" y="614"/>
      <point x="1075" y="731"/>
      <point x="781" y="731" type="curve" smooth="yes"/>
      <point x="763" y="731" type="line"/>
    </contour>
    <contour>
      <point x="781" y="545" type="line" smooth="yes"/>
      <point x="893" y="545"/>
      <point x="930" y="495"/>
      <point x="930" y="372" type="curve" smooth="yes"/>
      <point x="930" y="235"/>
      <point x="883" y="192"/>
      <point x="784" y="192" type="curve" smooth="yes"/>
      <point x="763" y="192" type="line"/>
      <point x="763" y="545" type="line"/>
    </contour>
  </outline>
</glyph>
<glyph name="yusbig-cy" format="2">
  <advance width="1200"/>
  <unicode hex="046B"/>
  <anchor x="600" y="0" name="bottom"/>
  <anchor x="600" y="1062" name="top"/>
  <outline>
    <contour>
      <point x="11" y="0" type="line"/>
      <point x="276" y="0" type="line"/>
      <point x="376" y="404" type="line"/>
      <point x="471" y="404" type="line"/>
      <point x="471" y="0" type="line"/>
      <point x="733" y="0" type="line"/>
      <point x="733" y="404" type="line"/>
      <point x="828" y="404" type="line"/>
      <point x="926" y="0" type="line"/>
      <point x="1191" y="0" type="line"/>
      <point x="987" y="602" type="line"/>
      <point x="217" y="602" type="line"/>
    </contour>
    <contour>
      <point x="457" y="469" type="line"/>
      <point x="733" y="469" type="line"/>
      <point x="1043" y="913" type="line"/>
      <point x="1043" y="1062" type="line"/>
      <point x="874" y="1062" type="line"/>
      <point x="596" y="602" type="line"/>
      <point x="314" y="1062" type="line"/>
      <point x="146" y="1062" type="line"/>
      <point x="146" y="913" type="line"/>
    </contour>
    <contour>
      <point x="304" y="883" type="line"/>
      <point x="873" y="883" type="line"/>
      <point x="892" y="1062" type="line"/>
      <point x="284" y="1062" type="line"/>
    </contour>
  </outline>
</glyph>
<glyph name="ertick-cy" format="2">
  <advance width="1200"/>
  <unicode hex="048F"/>
  <anchor x="600" y="-443" name="bottom"/>
  <anchor x="600" y="1062" name="top"/>
  <outline>
    <contour>
      <point x="473" y="438" type="line"/>
      <point x="853" y="-184" type="line"/>
      <point x="1011" y="-184" type="line"/>
      <point x="631" y="438" type="line"/>
    </contour>
    <contour>
      <point x="690" y="1097" type="curve" smooth="yes"/>
      <point x="589" y="1097"/>
      <point x="481" y="1053"/>
      <point x="395" y="943" type="curve"/>
      <point x="381" y="1062" type="line"/>
      <point x="101" y="1062" type="line"/>
      <point x="101" y="-443" type="line"/>
      <point x="417" y="-410" type="line"/>
      <point x="417" y="77" type="line"/>
      <point x="481" y="4"/>
      <point x="565" y="-34"/>
      <point x="670" y="-34" type="curve" smooth="yes"/>
      <point x="928" y="-34"/>
      <point x="1077" y="206"/>
      <point x="1077" y="534" type="curve" smooth="yes"/>
      <point x="1077" y="879"/>
      <point x="966" y="1097"/>
    </contour>
    <contour>
      <point x="591" y="864" type="curve" smooth="yes"/>
      <point x="710" y="864"/>
      <point x="771" y="794"/>
      <point x="771" y="530" type="curve" smooth="yes"/>
      <point x="771" y="251"/>
      <point x="705" y="198"/>
      <point x="593" y="198" type="curve" smooth="yes"/>
      <point x="506" y="198"/>
      <point x="461" y="228"/>
      <point x="417" y="293" type="curve"/>
      <point x="417" y="741" type="line"/>
      <point x="463" y="817"/>
      <point x="518" y="864"/>
    </contour>
  </outline>
</glyph>
<glyph name="Enghe-cy" format="2">
  <advance width="1200"/>
  <unicode hex="04A4"/>
  <outline>
    <contour>
      <point x="634" y="1386" type="line"/>
      <point x="959" y="1129" type="line"/>
      <point x="1198" y="1129" type="line"/>
      <point x="1237" y="1386" type="line"/>
    </contour>
    <contour>
      <point x="631" y="0" type="line"/>
      <point x="959" y="0" type="line"/>
      <point x="959" y="1386" type="line"/>
      <point x="631" y="1386" type="line"/>
      <point x="631" y="858" type="line"/>
      <point x="394" y="858" type="line"/>
      <point x="394" y="1386" type="line"/>
      <point x="66" y="1386" type="line"/>
      <point x="66" y="0" type="line"/>
      <point x="394" y="0" type="line"/>
      <point x="394" y="580" type="line"/>
      <point x="631" y="580" type="line"/>
    </contour>
  </outline>
</glyph>
<glyph name="Ustraitstroke-cy" format="2">
  <advance width="1200"/>
  <unicode hex="04B0"/>
  <anchor x="600" y="0" name="bottom"/>
  <anchor x="600" y="1386" name="top"/>
  <anchor x="-16" y="1386" name="topleft"/>
  <outline>
    <contour>
      <point x="997" y="587" type="line"/>
      <point x="399" y="587" type="line"/>
      <point x="203" y="587" type="line"/>
      <point x="203" y="403" type="line"/>
      <point x="764" y="403" type="line"/>
      <point x="997" y="403" type="line"/>
    </contour>
    <component base="Y"/>
  </outline>
</glyph>
<glyph name="Komide-cy" format="2">
  <advance width="1200"/>
  <unicode hex="0500"/>
  <anchor x="600" y="0" name="bottom"/>
  <anchor x="600" y="1386" name="top"/>
  <outline>
    <contour>
      <point x="602" y="0" type="curve" smooth="yes"/>
      <point x="1090" y="0" type="line"/>
      <point x="1090" y="1386" type="line"/>
      <point x="762" y="1386" type="line"/>
      <point x="762" y="918" type="line"/>
      <point x="626" y="918" type="line" smooth="yes"/>
      <point x="269" y="918"/>
      <point x="47" y="754"/>
      <point x="47" y="461" type="curve" smooth="yes"/>
      <point x="47" y="142"/>
      <point x="267" y="0"/>
    </contour>
    <contour>
      <point x="626" y="239" type="line" smooth="yes"/>
      <point x="471" y="239"/>
      <point x="385" y="300"/>
      <point x="385" y="461" type="curve" smooth="yes"/>
      <point x="385" y="610"/>
      <point x="466" y="685"/>
      <point x="637" y="685" type="curve" smooth="yes"/>
      <point x="762" y="685" type="line"/>
      <point x="762" y="239" type="line"/>
    </contour>
  </outline>
</glyph>
<glyph name="komidje-cy" format="2">
  <advance width="1200"/>
  <unicode hex="0503"/>
  <anchor x="600" y="0" name="bottom"/>
  <anchor x="600" y="1484" name="top"/>
  <outline>
    <contour>
      <point x="821" y="-34" type="curve" smooth="yes"/>
      <point x="1054" y="-34"/>
      <point x="1205" y="134"/>
      <point x="1205" y="512" type="curve" smooth="yes"/>
      <point x="1205" y="600"/>
      <point x="1201" y="680"/>
      <point x="1193" y="758" type="curve"/>
      <point x="916" y="758" type="line"/>
      <point x="924" y="678"/>
      <point x="928" y="594"/>
      <point x="928" y="510" type="curve" smooth="yes"/>
      <point x="928" y="272"/>
      <point x="893" y="178"/>
      <point x="832" y="178" type="curve" smooth="yes"/>
      <point x="791" y="178"/>
      <point x="763" y="206"/>
      <point x="763" y="283" type="curve" smooth="yes"/>
      <point x="763" y="1062" type="line"/>
      <point x="486" y="1062" type="line"/>
      <point x="486" y="359" type="line"/>
      <point x="486" y="97"/>
      <point x="645" y="-34"/>
    </contour>
    <contour>
      <point x="336" y="-34" type="curve" smooth="yes"/>
      <point x="464" y="-34"/>
      <point x="525" y="56"/>
      <point x="581" y="182" type="curve"/>
      <point x="526" y="356" type="line"/>
      <point x="475" y="238"/>
      <point x="440" y="178"/>
      <point x="389" y="178" type="curve" smooth="yes"/>
      <point x="324" y="178"/>
      <point x="288" y="250"/>
      <point x="288" y="532" type="curve" smooth="yes"/>
      <point x="288" y="790"/>
      <point x="328" y="885"/>
      <point x="398" y="885" type="curve" smooth="yes"/>
      <point x="445" y="885"/>
      <point x="479" y="856"/>
      <point x="519" y="780" type="curve"/>
      <point x="526" y="967" type="line"/>
      <point x="487" y="1051"/>
      <point x="419" y="1097"/>
      <point x="333" y="1097" type="curve" smooth="yes"/>
      <point x="150" y="1097"/>
      <point x="0" y="861"/>
      <point x="0" y="534" type="curve" smooth="yes"/>
      <point x="0" y="180"/>
      <point x="128" y="-34"/>
    </contour>
    <contour>
      <point x="486" y="269" type="line"/>
      <point x="763" y="352" type="line"/>
      <point x="763" y="1484" type="line"/>
      <point x="486" y="1514" type="line"/>
    </contour>
  </outline>
</glyph>
<glyph name="Aleutka-cy" format="2">
  <advance width="1200"/>
  <unicode hex="051E"/>
  <anchor x="600" y="0" name="bottom"/>
  <anchor x="1140" y="0" name="bottomright"/>
  <anchor x="648" y="1386" name="top"/>
  <outline>
    <contour>
      <point x="485" y="1136" type="line"/>
      <point x="1130" y="839" type="line"/>
      <point x="1208" y="1008" type="line"/>
      <point x="563" y="1304" type="line"/>
    </contour>
    <component base="Ka-cy"/>
  </outline>
</glyph>
<glyph name="Dche-cy" format="2">
  <advance width="1200"/>
  <unicode hex="052C"/>
  <anchor x="600" y="-443" name="bottom"/>
  <anchor x="600" y="1386" name="top"/>
  <outline>
    <contour>
      <point x="207" y="0" type="line"/>
      <point x="1077" y="0" type="line"/>
      <point x="1077" y="1386" type="line"/>
      <point x="451" y="1386" type="line"/>
      <point x="428" y="995" type="line" smooth="yes"/>
      <point x="401" y="563"/>
      <point x="303" y="390"/>
      <point x="194" y="238" type="curve"/>
    </contour>
    <contour>
      <point x="463" y="243" type="line"/>
      <point x="639" y="433"/>
      <point x="667" y="656"/>
      <point x="690" y="984" type="curve" smooth="yes"/>
      <point x="703" y="1166" type="line"/>
      <point x="806" y="1166" type="line"/>
      <point x="806" y="243" type="line"/>
    </contour>
    <contour>
      <point x="36" y="1386" type="line"/>
      <point x="36" y="1071" type="line" smooth="yes"/>
      <point x="36" y="757"/>
      <point x="173" y="582"/>
      <point x="559" y="582" type="curve"/>
      <point x="875" y="580" type="line"/>
      <point x="875" y="814" type="line"/>
      <point x="555" y="814" type="line" smooth="yes"/>
      <point x="347" y="814"/>
      <point x="296" y="894"/>
      <point x="296" y="1075" type="curve" smooth="yes"/>
      <point x="296" y="1386" type="line"/>
    </contour>
    <component base="descStraight-cy.case" xScale="-1" xOffset="890"/>
    <component base="descStraight-cy.case" xOffset="391"/>
  </outline>
</glyph>
<glyph name="dche-cy" format="2">
  <advance width="1200"/>
  <unicode hex="052D"/>
  <anchor x="600" y="-443" name="bottom"/>
  <anchor x="600" y="1062" name="top"/>
  <outline>
    <contour>
      <point x="465" y="214" type="line"/>
      <point x="561" y="311"/>
      <point x="610" y="394"/>
      <point x="628" y="733" type="curve" smooth="yes"/>
      <point x="636" y="881" type="line"/>
      <point x="793" y="881" type="line"/>
      <point x="793" y="214" type="line"/>
    </contour>
    <contour>
      <point x="443" y="438" type="curve" smooth="yes"/>
      <point x="969" y="438" type="line"/>
      <point x="969" y="621" type="line"/>
      <point x="488" y="621" type="line" smooth="yes"/>
      <point x="340" y="621"/>
      <point x="282" y="655"/>
      <point x="282" y="806" type="curve" smooth="yes"/>
      <point x="282" y="1062" type="line"/>
      <point x="42" y="1062" type="line"/>
      <point x="42" y="812" type="line" smooth="yes"/>
      <point x="42" y="616"/>
      <point x="160" y="438"/>
    </contour>
    <contour>
      <point x="404" y="1062" type="line"/>
      <point x="376" y="720" type="line" smooth="yes"/>
      <point x="350" y="395"/>
      <point x="314" y="303"/>
      <point x="244" y="214" type="curve"/>
      <point x="244" y="0" type="line"/>
      <point x="1045" y="0" type="line"/>
      <point x="1045" y="1062" type="line"/>
    </contour>
    <contour>
      <point x="151" y="-349" type="line"/>
      <point x="369" y="-349" type="line"/>
      <point x="408" y="0" type="line"/>
      <point x="488" y="0" type="line"/>
      <point x="550" y="214" type="line"/>
      <point x="151" y="214" type="line"/>
    </contour>
    <contour>
      <point x="920" y="-349" type="line"/>
      <point x="1138" y="-349" type="line"/>
      <point x="1138" y="214" type="line"/>
      <point x="748" y="214" type="line"/>
      <point x="800" y="0" type="line"/>
      <point x="880" y="0" type="line"/>
    </contour>
  </outline>
</glyph>
<glyph name="Eldescender-cy" format="2">
  <advance width="1200"/>
  <unicode hex="052E"/>
  <outline>
    <contour>
      <point x="1046" y="1386" type="line"/>
      <point x="273" y="1386" type="line"/>
      <point x="232" y="945" type="line" smooth="yes"/>
      <point x="178" y="359"/>
      <point x="117" y="274"/>
      <point x="-15" y="176" type="curve"/>
      <point x="113" y="-40" type="line"/>
      <point x="391" y="92"/>
      <point x="476" y="248"/>
      <point x="539" y="913" type="curve" smooth="yes"/>
      <point x="559" y="1136" type="line"/>
      <point x="718" y="1136" type="line"/>
      <point x="718" y="0" type="line"/>
      <point x="1046" y="0" type="line"/>
    </contour>
    <component base="descStraight-cy.case" xOffset="361"/>
  </outline>
</glyph>
<glyph name="ellipsis" format="2">
  <advance width="1200"/>
  <unicode hex="2026"/>
  <outline>
    <contour>
      <point x="29" y="132" type="curve" smooth="yes"/>
      <point x="29" y="38"/>
      <point x="106" y="-40"/>
      <point x="200" y="-40" type="curve" smooth="yes"/>
      <point x="294" y="-40"/>
      <point x="371" y="38"/>
      <point x="371" y="132" type="curve" smooth="yes"/>
      <point x="371" y="225"/>
      <point x="294" y="303"/>
      <point x="200" y="303" type="curve" smooth="yes"/>
      <point x="106" y="303"/>
      <point x="29" y="225"/>
    </contour>
    <contour>
      <point x="429" y="132" type="curve" smooth="yes"/>
      <point x="429" y="38"/>
      <point x="506" y="-40"/>
      <point x="600" y="-40" type="curve" smooth="yes"/>
      <point x="694" y="-40"/>
      <point x="771" y="38"/>
      <point x="771" y="132" type="curve" smooth="yes"/>
      <point x="771" y="225"/>
      <point x="694" y="303"/>
      <point x="600" y="303" type="curve" smooth="yes"/>
      <point x="506" y="303"/>
      <point x="429" y="225"/>
    </contour>
    <contour>
      <point x="829" y="132" type="curve" smooth="yes"/>
      <point x="829" y="38"/>
      <point x="906" y="-40"/>
      <point x="1000" y="-40" type="curve" smooth="yes"/>
      <point x="1094" y="-40"/>
      <point x="1171" y="38"/>
      <point x="1171" y="132" type="curve" smooth="yes"/>
      <point x="1171" y="225"/>
      <point x="1094" y="303"/>
      <point x="1000" y="303" type="curve" smooth="yes"/>
      <point x="906" y="303"/>
      <point x="829" y="225"/>
    </contour>
  </outline>
</glyph>
<glyph name="drachma" format="2">
  <advance width="1200"/>
  <unicode hex="20AF"/>
  <outline>
    <contour>
      <point x="213" y="604" type="line"/>
      <point x="987" y="604" type="line"/>
      <point x="723" y="1386" type="line"/>
      <point x="475" y="1386" type="line"/>
    </contour>
    <contour>
      <point x="309" y="-443" type="line"/>
      <point x="505" y="-421" type="line"/>
      <point x="505" y="149" type="line" smooth="yes"/>
      <point x="505" y="303"/>
      <point x="531" y="368"/>
      <point x="608" y="368" type="curve" smooth="yes"/>
      <point x="674" y="368"/>
      <point x="715" y="321"/>
      <point x="715" y="171" type="curve" smooth="yes"/>
      <point x="715" y="36"/>
      <point x="675" y="-27"/>
      <point x="602" y="-27" type="curve" smooth="yes"/>
      <point x="553" y="-27"/>
      <point x="513" y="4"/>
      <point x="485" y="70" type="curve"/>
      <point x="485" y="-89" type="line"/>
      <point x="525" y="-153"/>
      <point x="587" y="-187"/>
      <point x="661" y="-187" type="curve" smooth="yes"/>
      <point x="823" y="-187"/>
      <point x="917" y="-33"/>
      <point x="917" y="172" type="curve" smooth="yes"/>
      <point x="917" y="396"/>
      <point x="807" y="522"/>
      <point x="610" y="522" type="curve" smooth="yes"/>
      <point x="407" y="522"/>
      <point x="309" y="398"/>
      <point x="309" y="182" type="curve" smooth="yes"/>
    </contour>
    <contour>
      <point x="465" y="774" type="line"/>
      <point x="596" y="1252" type="line"/>
      <point x="727" y="774" type="line"/>
    </contour>
  </outline>
</glyph>
<glyph name="liraTurkish" format="2">
  <advance width="1200"/>
  <unicode hex="20BA"/>
  <outline>
    <contour>
      <point x="224" y="0" type="line"/>
      <point x="658" y="0" type="line" smooth="yes"/>
      <point x="857" y="0"/>
      <point x="1015" y="70"/>
      <point x="1132" y="235" type="curve"/>
      <point x="949" y="394" type="line"/>
      <point x="886" y="321"/>
      <point x="815" y="261"/>
      <point x="682" y="261" type="curve" smooth="yes"/>
      <point x="548" y="261" type="line"/>
      <point x="552" y="1386" type="line"/>
      <point x="224" y="1386" type="line"/>
    </contour>
    <contour>
      <point x="135" y="294" type="line"/>
      <point x="889" y="643" type="line"/>
      <point x="817" y="788" type="line"/>
      <point x="66" y="439" type="line"/>
    </contour>
    <contour>
      <point x="137" y="605" type="line"/>
      <point x="889" y="954" type="line"/>
      <point x="819" y="1099" type="line"/>
      <point x="66" y="750" type="line"/>
    </contour>
  </outline>
</glyph>
<glyph name="ruble" format="2">
  <advance width="1200"/>
  <unicode hex="20BD"/>
  <outline>
    <contour>
      <point x="185" y="0" type="line"/>
      <point x="512" y="0" type="line"/>
      <point x="512" y="500" type="line"/>
      <point x="584" y="500" type="line" smooth="yes"/>
      <point x="912" y="500"/>
      <point x="1134" y="651"/>
      <point x="1134" y="940" type="curve" smooth="yes"/>
      <point x="1134" y="1238"/>
      <point x="918" y="1386"/>
      <point x="541" y="1386" type="curve" smooth="yes"/>
      <point x="185" y="1386" type="line"/>
    </contour>
    <contour>
      <point x="62" y="220" type="line"/>
      <point x="788" y="220" type="line"/>
      <point x="788" y="385" type="line"/>
      <point x="62" y="385" type="line"/>
    </contour>
    <contour>
      <point x="62" y="500" type="line"/>
      <point x="585" y="500" type="line"/>
      <point x="585" y="704" type="line"/>
      <point x="62" y="704" type="line"/>
    </contour>
    <contour>
      <point x="512" y="704" type="line"/>
      <point x="512" y="1158" type="line"/>
      <point x="546" y="1158" type="line" smooth="yes"/>
      <point x="712" y="1158"/>
      <point x="796" y="1092"/>
      <point x="796" y="940" type="curve" smooth="yes"/>
      <point x="796" y="772"/>
      <point x="708" y="704"/>
      <point x="563" y="704" type="curve" smooth="yes"/>
    </contour>
  </outline>
</glyph>
<glyph name="arrowup" format="2">
  <advance width="1200"/>
  <unicode hex="2191"/>
  <outline>
    <contour>
      <point x="600" y="1381" type="line"/>
      <point x="-34" y="786" type="line"/>
      <point x="148" y="592" type="line"/>
      <point x="291" y="732" type="line" smooth="yes"/>
      <point x="374" y="815"/>
      <point x="416" y="865"/>
      <point x="454" y="936" type="curve"/>
      <point x="454" y="0" type="line"/>
      <point x="746" y="0" type="line"/>
      <point x="746" y="938" type="line"/>
      <point x="790" y="859"/>
      <point x="828" y="813"/>
      <point x="911" y="730" type="curve" smooth="yes"/>
      <point x="1052" y="592" type="line"/>
      <point x="1234" y="786" type="line"/>
    </contour>
  </outline>
</glyph>
<glyph name="arrowdown" format="2">
  <advance width="1200"/>
  <unicode hex="2193"/>
  <outline>
    <contour>
      <point x="746" y="1328" type="line"/>
      <point x="454" y="1328" type="line"/>
      <point x="454" y="392" type="line"/>
      <point x="416" y="464"/>
      <point x="374" y="513"/>
      <point x="291" y="596" type="curve" smooth="yes"/>
      <point x="148" y="736" type="line"/>
      <point x="-34" y="542" type="line"/>
      <point x="600" y="-53" type="line"/>
      <point x="1234" y="542" type="line"/>
      <point x="1052" y="736" type="line"/>
      <point x="911" y="598" type="line" smooth="yes"/>
      <point x="828" y="515"/>
      <point x="790" y="469"/>
      <point x="746" y="390" type="curve"/>
    </contour>
  </outline>
</glyph>
<glyph name="arrowupdown" format="2">
  <advance width="1200"/>
  <unicode hex="2195"/>
  <outline>
    <contour>
      <point x="600" y="1783" type="line"/>
      <point x="-34" y="1188" type="line"/>
      <point x="148" y="994" type="line"/>
      <point x="291" y="1134" type="line" smooth="yes"/>
      <point x="374" y="1217"/>
      <point x="416" y="1266"/>
      <point x="454" y="1338" type="curve"/>
      <point x="454" y="-11" type="line"/>
      <point x="416" y="60"/>
      <point x="374" y="110"/>
      <point x="291" y="193" type="curve" smooth="yes"/>
      <point x="148" y="333" type="line"/>
      <point x="-34" y="139" type="line"/>
      <point x="600" y="-456" type="line"/>
      <point x="1234" y="139" type="line"/>
      <point x="1052" y="333" type="line"/>
      <point x="911" y="195" type="line" smooth="yes"/>
      <point x="828" y="112"/>
      <point x="790" y="66"/>
      <point x="746" y="-13" type="curve"/>
      <point x="746" y="1340" type="line"/>
      <point x="790" y="1261"/>
      <point x="828" y="1215"/>
      <point x="911" y="1132" type="curve" smooth="yes"/>
      <point x="1052" y="994" type="line"/>
      <point x="1234" y="1188" type="line"/>
    </contour>
  </outline>
</glyph>
<glyph name="arrowupright" format="2">
  <advance width="1200"/>
  <unicode hex="2197"/>
  <outline>
    <contour>
      <point x="219" y="82" type="line"/>
      <point x="913" y="759" type="line"/>
      <point x="891" y="679"/>
      <point x="876" y="622"/>
      <point x="881" y="496" type="curve" smooth="yes"/>
      <point x="896" y="228" type="line"/>
      <point x="1178" y="246" type="line"/>
      <point x="1134" y="1170" type="line"/>
      <point x="211" y="1214" type="line"/>
      <point x="194" y="958" type="line"/>
      <point x="507" y="942" type="line" smooth="yes"/>
      <point x="607" y="938"/>
      <point x="655" y="946"/>
      <point x="723" y="962" type="curve"/>
      <point x="22" y="282" type="line"/>
    </contour>
  </outline>
</glyph>
<glyph name="arrowdownleft" format="2">
  <advance width="1200"/>
  <unicode hex="2199"/>
  <outline>
    <contour>
      <point x="981" y="1165" type="line"/>
      <point x="287" y="489" type="line"/>
      <point x="309" y="569"/>
      <point x="324" y="625"/>
      <point x="319" y="751" type="curve" smooth="yes"/>
      <point x="304" y="1019" type="line"/>
      <point x="22" y="1001" type="line"/>
      <point x="66" y="77" type="line"/>
      <point x="989" y="33" type="line"/>
      <point x="1006" y="289" type="line"/>
      <point x="693" y="305" type="line" smooth="yes"/>
      <point x="593" y="309"/>
      <point x="545" y="301"/>
      <point x="477" y="285" type="curve"/>
      <point x="1178" y="965" type="line"/>
    </contour>
  </outline>
</glyph>
<glyph name="arrowleftwhite" format="2">
  <advance width="1200"/>
  <unicode hex="21E6"/>
  <outline>
    <contour>
      <point x="516" y="1226" type="line"/>
      <point x="-80" y="626" type="line"/>
      <point x="516" y="26" type="line"/>
      <point x="516" y="378" type="line"/>
      <point x="1180" y="378" type="line" smooth="yes"/>
      <point x="1240" y="378"/>
      <point x="1280" y="418"/>
      <point x="1280" y="478" type="curve" smooth="yes"/>
      <point x="1280" y="774" type="line"/>
      <point x="1280" y="834"/>
      <point x="1240" y="874"/>
      <point x="1180" y="874" type="curve" smooth="yes"/>
      <point x="516" y="874" type="line"/>
    </contour>
    <contour>
      <point x="426" y="1008" type="line"/>
      <point x="426" y="786" type="line"/>
      <point x="1192" y="786" type="line"/>
      <point x="1192" y="466" type="line"/>
      <point x="426" y="466" type="line"/>
      <point x="426" y="244" type="line"/>
      <point x="48" y="626" type="line"/>
    </contour>
  </outline>
</glyph>
<glyph name="product" format="2">
  <advance width="1200"/>
  <unicode hex="220F"/>
  <outline>
    <contour>
      <point x="1148" y="1386" type="line"/>
      <point x="52" y="1386" type="line"/>
      <point x="52" y="1148" type="line"/>
      <point x="172" y="1148" type="line"/>
      <point x="172" y="-443" type="line"/>
      <point x="472" y="-410" type="line"/>
      <point x="472" y="1148" type="line"/>
      <point x="734" y="1148" type="line"/>
      <point x="734" y="-443" type="line"/>
      <point x="1028" y="-410" type="line"/>
      <point x="1028" y="1148" type="line"/>
      <point x="1148" y="1148" type="line"/>
    </contour>
  </outline>
</glyph>
<glyph name="infinity" format="2">
  <advance width="1200"/>
  <unicode hex="221E"/>
  <outline>
    <contour>
      <point x="896" y="1036" type="curve" smooth="yes"/>
      <point x="748" y="1036"/>
      <point x="666" y="949"/>
      <point x="608" y="840" type="curve"/>
      <point x="537" y="963"/>
      <point x="448" y="1036"/>
      <point x="309" y="1036" type="curve" smooth="yes"/>
      <point x="58" y="1036"/>
      <point x="-22" y="850"/>
      <point x="-22" y="632" type="curve" smooth="yes"/>
      <point x="-22" y="414"/>
      <point x="58" y="226"/>
      <point x="302" y="226" type="curve" smooth="yes"/>
      <point x="450" y="226"/>
      <point x="532" y="311"/>
      <point x="592" y="420" type="curve"/>
      <point x="660" y="299"/>
      <point x="750" y="226"/>
      <point x="891" y="226" type="curve" smooth="yes"/>
      <point x="1140" y="226"/>
      <point x="1222" y="412"/>
      <point x="1222" y="630" type="curve" smooth="yes"/>
      <point x="1222" y="848"/>
      <point x="1142" y="1036"/>
    </contour>
    <contour>
      <point x="343" y="830" type="curve" smooth="yes"/>
      <point x="420" y="830"/>
      <point x="460" y="748"/>
      <point x="497" y="662" type="curve"/>
      <point x="462" y="535"/>
      <point x="426" y="434"/>
      <point x="339" y="434" type="curve" smooth="yes"/>
      <point x="264" y="434"/>
      <point x="228" y="507"/>
      <point x="228" y="632" type="curve" smooth="yes"/>
      <point x="228" y="763"/>
      <point x="268" y="830"/>
    </contour>
    <contour>
      <point x="859" y="830" type="curve" smooth="yes"/>
      <point x="934" y="830"/>
      <point x="972" y="757"/>
      <point x="972" y="632" type="curve" smooth="yes"/>
      <point x="972" y="499"/>
      <point x="932" y="434"/>
      <point x="857" y="434" type="curve" smooth="yes"/>
      <point x="780" y="434"/>
      <point x="738" y="514"/>
      <point x="701" y="602" type="curve"/>
      <point x="738" y="727"/>
      <point x="774" y="830"/>
    </contour>
  </outline>
</glyph>
<glyph name="notequal" format="2">
  <advance width="1200"/>
  <unicode hex="2260"/>
  <outline>
    <contour>
      <point x="854" y="1225" type="line"/>
      <point x="692" y="956" type="line"/>
      <point x="185" y="108" type="line"/>
      <point x="345" y="15" type="line"/>
      <point x="1013" y="1136" type="line"/>
    </contour>
    <component base="equal"/>
  </outline>
</glyph>
<glyph name="equivalence" format="2">
  <advance width="1200"/>
  <unicode hex="2261"/>
  <outline>
    <contour>
      <point x="1054" y="1169" type="line"/>
      <point x="146" y="1169" type="line"/>
      <point x="146" y="922" type="line"/>
      <point x="1054" y="922" type="line"/>
    </contour>
    <contour>
      <point x="1054" y="330" type="line"/>
      <point x="146" y="330" type="line"/>
      <point x="146" y="84" type="line"/>
      <point x="1054" y="84" type="line"/>
    </contour>
    <contour>
      <point x="1054" y="751" type="line"/>
      <point x="146" y="751" type="line"/>
      <point x="146" y="503" type="line"/>
      <point x="1054" y="503" type="line"/>
    </contour>
  </outline>
</glyph>
<glyph name="lessequal" format="2">
  <advance width="1200"/>
  <unicode hex="2264"/>
  <outline>
    <contour>
      <point x="945" y="1295" type="line"/>
      <point x="152" y="959" type="line"/>
      <point x="152" y="680" type="line"/>
      <point x="945" y="352" type="line"/>
      <point x="1046" y="584" type="line"/>
      <point x="420" y="820" type="line"/>
      <point x="1046" y="1075" type="line"/>
    </contour>
    <contour>
      <point x="1028" y="240" type="line"/>
      <point x="159" y="240" type="line"/>
      <point x="159" y="0" type="line"/>
      <point x="1028" y="0" type="line"/>
    </contour>
  </outline>
</glyph>
<glyph name="uni256F" format="2">
  <advance width="1200"/>
  <unicode hex="256F"/>
  <note>
uni256F
</note>
  <outline>
    <contour>
      <point x="-10" y="620" type="line"/>
      <point x="140" y="620" type="line" smooth="yes"/>
      <point x="438" y="620"/>
      <point x="680" y="862"/>
      <point x="680" y="1160" type="curve" smooth="yes"/>
      <point x="680" y="2400" type="line"/>
      <point x="520" y="2400" type="line"/>
      <point x="520" y="1160" type="line" smooth="yes"/>
      <point x="520" y="952"/>
      <point x="348" y="780"/>
      <point x="140" y="780" type="curve" smooth="yes"/>
      <point x="-10" y="780" type="line"/>
    </contour>
  </outline>
</glyph>
<glyph name="inverseWhiteCircle" format="2">
  <advance width="1200"/>
  <unicode hex="25D9"/>
  <outline>
    <contour>
      <point x="1140" y="1080" type="line"/>
      <point x="60" y="1080" type="line"/>
      <point x="60" y="0" type="line"/>
      <point x="1140" y="0" type="line"/>
    </contour>
    <contour>
      <point x="600" y="1000" type="curve" smooth="yes"/>
      <point x="852" y="1000"/>
      <point x="1060" y="792"/>
      <point x="1060" y="540" type="curve" smooth="yes"/>
      <point x="1060" y="286"/>
      <point x="852" y="80"/>
      <point x="600" y="80" type="curve" smooth="yes"/>
      <point x="346" y="80"/>
      <point x="140" y="286"/>
      <point x="140" y="540" type="curve" smooth="yes"/>
      <point x="140" y="792"/>
      <point x="346" y="1000"/>
    </contour>
    <contour>
      <point x="600" y="840" type="curve" smooth="yes"/>
      <point x="434" y="840"/>
      <point x="300" y="704"/>
      <point x="300" y="540" type="curve" smooth="yes"/>
      <point x="300" y="374"/>
      <point x="434" y="240"/>
      <point x="600" y="240" type="curve" smooth="yes"/>
      <point x="764" y="240"/>
      <point x="900" y="374"/>
      <point x="900" y="540" type="curve" smooth="yes"/>
      <point x="900" y="704"/>
      <point x="764" y="840"/>
    </contour>
  </outline>
</glyph>
<glyph name="sun" format="2">
  <advance width="1200"/>
  <unicode hex="263C"/>
  <outline>
    <contour>
      <point x="648" y="1054" type="line"/>
      <point x="552" y="1054" type="line"/>
      <point x="552" y="840" type="line"/>
      <point x="500" y="834"/>
      <point x="454" y="814"/>
      <point x="414" y="786" type="curve"/>
      <point x="254" y="950" type="line"/>
      <point x="182" y="878" type="line"/>
      <point x="342" y="718" type="line"/>
      <point x="312" y="678"/>
      <point x="290" y="628"/>
      <point x="282" y="574" type="curve"/>
      <point x="60" y="574" type="line"/>
      <point x="60" y="480" type="line"/>
      <point x="282" y="480" type="line"/>
      <point x="290" y="428"/>
      <point x="312" y="382"/>
      <point x="340" y="342" type="curve"/>
      <point x="182" y="186" type="line"/>
      <point x="254" y="114" type="line"/>
      <point x="412" y="274" type="line"/>
      <point x="452" y="246"/>
      <point x="500" y="228"/>
      <point x="552" y="220" type="curve"/>
      <point x="552" y="0" type="line"/>
      <point x="648" y="0" type="line"/>
      <point x="648" y="220" type="line"/>
      <point x="700" y="228"/>
      <point x="746" y="246"/>
      <point x="788" y="274" type="curve"/>
      <point x="946" y="114" type="line"/>
      <point x="1018" y="186" type="line"/>
      <point x="860" y="342" type="line"/>
      <point x="890" y="380"/>
      <point x="910" y="428"/>
      <point x="918" y="480" type="curve"/>
      <point x="1140" y="480" type="line"/>
      <point x="1140" y="574" type="line"/>
      <point x="918" y="574" type="line"/>
      <point x="910" y="628"/>
      <point x="888" y="678"/>
      <point x="856" y="718" type="curve"/>
      <point x="1018" y="878" type="line"/>
      <point x="946" y="950" type="line"/>
      <point x="784" y="786" type="line"/>
      <point x="744" y="814"/>
      <point x="698" y="834"/>
      <point x="648" y="840" type="curve"/>
    </contour>
    <contour>
      <point x="600" y="752" type="curve" smooth="yes"/>
      <point x="728" y="752"/>
      <point x="820" y="656"/>
      <point x="820" y="528" type="curve" smooth="yes"/>
      <point x="820" y="400"/>
      <point x="728" y="306"/>
      <point x="600" y="306" type="curve" smooth="yes"/>
      <point x="472" y="306"/>
      <point x="382" y="400"/>
      <point x="382" y="528" type="curve" smooth="yes"/>
      <point x="382" y="656"/>
      <point x="472" y="752"/>
    </contour>
  </outline>
</glyph>
<glyph name="leftanglebracket-math" format="2">
  <advance width="1200"/>
  <unicode hex="27E8"/>
  <outline>
    <contour>
      <point x="935" y="-226" type="line"/>
      <point x="607" y="701" type="line"/>
      <point x="935" y="1626" type="line"/>
      <point x="715" y="1702" type="line"/>
      <point x="291" y="800" type="line"/>
      <point x="291" y="600" type="line"/>
      <point x="715" y="-301" type="line"/>
    </contour>
  </outline>
</glyph>
<glyph name="uniE0A0" format="2">
  <advance width="1200"/>
  <unicode hex="E0A0"/>
  <outline>
    <contour>
      <point x="382" y="1800" type="line"/>
      <point x="101" y="1800" type="line"/>
      <point x="101" y="446" type="line"/>
      <point x="382" y="544" type="line"/>
    </contour>
    <contour>
      <point x="434" y="362" type="line" smooth="yes"/>
      <point x="161" y="224"/>
      <point x="82" y="123"/>
      <point x="82" y="-112" type="curve"/>
      <point x="82" y="-462" type="line"/>
      <point x="382" y="-462" type="line"/>
      <point x="382" y="-130" type="line"/>
      <point x="382" y="9"/>
      <point x="461" y="36"/>
      <point x="594" y="104" type="curve" smooth="yes"/>
      <point x="792" y="204" type="line" smooth="yes"/>
      <point x="1027" y="323"/>
      <point x="1082" y="421"/>
      <point x="1082" y="704" type="curve"/>
      <point x="1082" y="1198" type="line"/>
      <point x="782" y="1198" type="line"/>
      <point x="782" y="748" type="line"/>
      <point x="782" y="602"/>
      <point x="784" y="539"/>
      <point x="708" y="500" type="curve" smooth="yes"/>
    </contour>
    <contour>
      <point x="934" y="1068" type="line"/>
      <point x="1344" y="812" type="line"/>
      <point x="1472" y="1007" type="line"/>
      <point x="934" y="1471" type="line"/>
      <point x="394" y="1007" type="line"/>
      <point x="522" y="812" type="line"/>
    </contour>
  </outline>
</glyph>
<glyph name="uniE0A2" format="2">
  <advance width="1200"/>
  <unicode hex="E0A2"/>
  <outline>
    <contour>
      <point x="318" y="884" type="line"/>
      <point x="318" y="1346" type="line" smooth="yes"/>
      <point x="318" y="1498"/>
      <point x="420" y="1600"/>
      <point x="572" y="1600" type="curve" smooth="yes"/>
      <point x="628" y="1600" type="line" smooth="yes"/>
      <point x="780" y="1600"/>
      <point x="882" y="1498"/>
      <point x="882" y="1346" type="curve" smooth="yes"/>
      <point x="882" y="884" type="line"/>
      <point x="974" y="884" type="line" smooth="yes"/>
      <point x="1036" y="884"/>
      <point x="1092" y="858"/>
      <point x="1132" y="818" type="curve" smooth="yes"/>
      <point x="1172" y="778"/>
      <point x="1198" y="724"/>
      <point x="1198" y="662" type="curve" smooth="yes"/>
      <point x="1198" y="114" type="line" smooth="yes"/>
      <point x="1198" y="52"/>
      <point x="1172" y="-2"/>
      <point x="1132" y="-42" type="curve" smooth="yes"/>
      <point x="1092" y="-82"/>
      <point x="1036" y="-108"/>
      <point x="974" y="-108" type="curve" smooth="yes"/>
      <point x="224" y="-108" type="line" smooth="yes"/>
      <point x="162" y="-108"/>
      <point x="108" y="-82"/>
      <point x="68" y="-42" type="curve" smooth="yes"/>
      <point x="28" y="-2"/>
      <point x="2" y="52"/>
      <point x="2" y="114" type="curve" smooth="yes"/>
      <point x="2" y="662" type="line" smooth="yes"/>
      <point x="2" y="724"/>
      <point x="28" y="778"/>
      <point x="68" y="818" type="curve" smooth="yes"/>
      <point x="108" y="858"/>
      <point x="162" y="884"/>
      <point x="224" y="884" type="curve" smooth="yes"/>
    </contour>
    <contour>
      <point x="482" y="884" type="line"/>
      <point x="718" y="884" type="line"/>
      <point x="718" y="1333" type="line" smooth="yes"/>
      <point x="718" y="1405"/>
      <point x="682" y="1441"/>
      <point x="610" y="1441" type="curve" smooth="yes"/>
      <point x="590" y="1441" type="line" smooth="yes"/>
      <point x="518" y="1441"/>
      <point x="482" y="1405"/>
      <point x="482" y="1333" type="curve" smooth="yes"/>
    </contour>
    <contour>
      <point x="1007" y="147" type="curve" smooth="yes"/>
      <point x="1007" y="629" type="line" smooth="yes"/>
      <point x="1007" y="673"/>
      <point x="971" y="707"/>
      <point x="927" y="707" type="curve" smooth="yes"/>
      <point x="271" y="707" type="line" smooth="yes"/>
      <point x="229" y="707"/>
      <point x="193" y="673"/>
      <point x="193" y="629" type="curve" smooth="yes"/>
      <point x="193" y="147" type="line" smooth="yes"/>
      <point x="193" y="103"/>
      <point x="229" y="69"/>
      <point x="271" y="69" type="curve" smooth="yes"/>
      <point x="927" y="69" type="line" smooth="yes"/>
      <point x="971" y="69"/>
      <point x="1007" y="103"/>
    </contour>
    <contour>
      <point x="600" y="326" type="curve" smooth="yes"/>
      <point x="690" y="326"/>
      <point x="762" y="398"/>
      <point x="762" y="490" type="curve" smooth="yes"/>
      <point x="762" y="580"/>
      <point x="690" y="644"/>
      <point x="600" y="652" type="curve" smooth="yes"/>
      <point x="510" y="644"/>
      <point x="436" y="580"/>
      <point x="436" y="490" type="curve" smooth="yes"/>
      <point x="436" y="398"/>
      <point x="510" y="326"/>
    </contour>
    <contour>
      <point x="516" y="384" type="line"/>
      <point x="516" y="146" type="line"/>
      <point x="686" y="146" type="line"/>
      <point x="686" y="384" type="line"/>
    </contour>
  </outline>
</glyph>
<glyph name="fi" format="2">
  <advance width="1200"/>
  <unicode hex="FB01"/>
  <outline>
    <contour>
      <point x="1184" y="0" type="line"/>
      <point x="1184" y="216" type="line"/>
      <point x="1056" y="216" type="line"/>
      <point x="1056" y="1062" type="line"/>
      <point x="478" y="1062" type="line"/>
      <point x="478" y="1137" type="line" smooth="yes"/>
      <point x="478" y="1242"/>
      <point x="528" y="1284"/>
      <point x="655" y="1284" type="curve" smooth="yes"/>
      <point x="731" y="1284"/>
      <point x="809" y="1272"/>
      <point x="883" y="1244" type="curve"/>
      <point x="968" y="1450" type="line"/>
      <point x="876" y="1490"/>
      <point x="761" y="1517"/>
      <point x="604" y="1517" type="curve" smooth="yes"/>
      <point x="318" y="1517"/>
      <point x="175" y="1358"/>
      <point x="175" y="1149" type="curve" smooth="yes"/>
      <point x="175" y="1062" type="line"/>
      <point x="21" y="1062" type="line"/>
      <point x="21" y="842" type="line"/>
      <point x="175" y="842" type="line"/>
      <point x="175" y="0" type="line"/>
      <point x="478" y="0" type="line"/>
      <point x="478" y="842" type="line"/>
      <point x="752" y="842" type="line"/>
      <point x="752" y="216" type="line"/>
      <point x="630" y="216" type="line"/>
      <point x="630" y="0" type="line"/>
    </contour>
  </outline>
</glyph>
<glyph name="Ksi-cyHELPER" format="2">
  <advance width="1200"/>
  <anchor x="564" y="1386" name="top"/>
  <outline>
    <contour>
      <point x="495" y="-451" type="curve"/>
      <point x="605" y="-263" type="line"/>
      <point x="513" y="-212"/>
      <point x="456" y="-183"/>
      <point x="456" y="-131" type="curve" smooth="yes"/>
      <point x="456" y="-92"/>
      <point x="484" y="-70"/>
      <point x="645" y="-21" type="curve" smooth="yes"/>
      <point x="852" y="42"/>
      <point x="1079" y="116"/>
      <point x="1079" y="391" type="curve"/>
      <point x="743" y="414" type="line"/>
      <point x="743" y="283"/>
      <point x="637" y="248"/>
      <point x="452" y="191" type="curve" smooth="yes"/>
      <point x="214" y="116"/>
      <point x="134" y="44"/>
      <point x="134" y="-100" type="curve" smooth="yes"/>
      <point x="134" y="-235"/>
      <point x="247" y="-352"/>
    </contour>
    <contour>
      <point x="1079" y="391" type="line"/>
      <point x="1079" y="643"/>
      <point x="946" y="766"/>
      <point x="638" y="773" type="curve"/>
      <point x="539" y="773" type="line"/>
      <point x="285" y="573" type="line"/>
      <point x="536" y="573" type="line" smooth="yes"/>
      <point x="676" y="573"/>
      <point x="743" y="521"/>
      <point x="743" y="414" type="curve"/>
    </contour>
    <contour>
      <point x="285" y="573" type="line"/>
      <point x="519" y="653" type="line"/>
      <point x="1005" y="1150" type="line"/>
      <point x="1005" y="1386" type="line"/>
      <point x="121" y="1386" type="line"/>
      <point x="121" y="1140" type="line"/>
      <point x="657" y="1140" type="line"/>
      <point x="285" y="754" type="line"/>
    </contour>
  </outline>
</glyph>
<glyph name="TseHelper-cy" format="2">
  <advance width="1200"/>
  <anchor x="600" y="0" name="bottom"/>
  <anchor x="1116" y="0" name="bottomright"/>
  <outline>
    <contour>
      <point x="104" y="0" type="line"/>
      <point x="1096" y="0" type="line"/>
      <point x="1096" y="1386" type="line"/>
      <point x="768" y="1386" type="line"/>
      <point x="768" y="255" type="line"/>
      <point x="432" y="255" type="line"/>
      <point x="432" y="1386" type="line"/>
      <point x="104" y="1386" type="line"/>
    </contour>
  </outline>
</glyph>
<glyph name="_part.asterisk" format="2">
  <advance width="1200"/>
  <outline>
    <contour>
      <point x="463" y="1262" type="line"/>
      <point x="497" y="775" type="line"/>
      <point x="48" y="953" type="line"/>
      <point x="-31" y="703" type="line"/>
      <point x="434" y="583" type="line"/>
      <point x="155" y="243" type="line"/>
      <point x="373" y="85" type="line"/>
      <point x="598" y="462" type="line"/>
      <point x="849" y="69" type="line"/>
      <point x="1067" y="228" type="line"/>
      <point x="765" y="581" type="line"/>
      <point x="1231" y="697" type="line"/>
      <point x="1150" y="947" type="line"/>
      <point x="701" y="773" type="line"/>
      <point x="735" y="1262" type="line"/>
    </contour>
  </outline>
</glyph>
<glyph name="_part.bar" format="2">
  <advance width="1200"/>
  <outline>
    <contour>
      <point x="746" y="1454" type="line"/>
      <point x="452" y="1454" type="line"/>
      <point x="452" y="-210" type="line"/>
      <point x="746" y="-210" type="line"/>
    </contour>
  </outline>
</glyph>
<glyph name="_part.greater2" format="2">
  <advance width="1200"/>
  <outline>
    <contour>
      <point x="-61" y="1312" type="line"/>
      <point x="-61" y="998" type="line"/>
      <point x="589" y="628" type="line"/>
      <point x="-61" y="246" type="line"/>
      <point x="-61" y="-58" type="line"/>
      <point x="861" y="515" type="line"/>
      <point x="861" y="741" type="line"/>
    </contour>
  </outline>
</glyph>
<glyph name="_part.less2" format="2">
  <advance width="1200"/>
  <outline>
    <contour>
      <point x="1261" y="1310" type="line"/>
      <point x="339" y="739" type="line"/>
      <point x="339" y="515" type="line"/>
      <point x="1261" y="-58" type="line"/>
      <point x="1261" y="256" type="line"/>
      <point x="612" y="628" type="line"/>
      <point x="1261" y="1007" type="line"/>
    </contour>
  </outline>
</glyph>
<glyph name="acute.loclPLK" format="2">
  <advance width="1200"/>
  <anchor x="524" y="1062" name="_top"/>
  <outline>
    <contour>
      <point x="580" y="1649" type="line"/>
      <point x="377" y="1259" type="line"/>
      <point x="530" y="1162" type="line"/>
      <point x="825" y="1495" type="line"/>
    </contour>
  </outline>
</glyph>
<glyph name="asciicircum_equal.liga" format="2">
  <advance width="1200"/>
  <outline>
    <contour>
      <point x="-17" y="956" type="line"/>
      <point x="-356" y="1528" type="line"/>
      <point x="-644" y="1528" type="line"/>
      <point x="-1022" y="894" type="line"/>
      <point x="-710" y="894" type="line"/>
      <point x="-502" y="1292" type="line"/>
      <point x="-187" y="709" type="line"/>
      <point x="954" y="709" type="line"/>
      <point x="954" y="956" type="line"/>
    </contour>
    <contour>
      <point x="-187" y="290" type="line"/>
      <point x="954" y="290" type="line"/>
      <point x="954" y="535" type="line"/>
      <point x="-187" y="535" type="line"/>
    </contour>
  </outline>
</glyph>
<glyph name="asciitilde_asciitilde_asciitilde.rem" format="2">
  <advance width="1200"/>
  <outline>
    <contour>
      <point x="552" y="817" type="line"/>
      <point x="498" y="715"/>
      <point x="450" y="660"/>
      <point x="374" y="660" type="curve" smooth="yes"/>
      <point x="254" y="660"/>
      <point x="174" y="860"/>
      <point x="-22" y="860" type="curve" smooth="yes"/>
      <point x="-216" y="860"/>
      <point x="-278" y="660"/>
      <point x="-398" y="660" type="curve" smooth="yes"/>
      <point x="-518" y="660"/>
      <point x="-598" y="860"/>
      <point x="-794" y="860" type="curve" smooth="yes"/>
      <point x="-988" y="860"/>
      <point x="-1050" y="660"/>
      <point x="-1170" y="660" type="curve" smooth="yes"/>
      <point x="-1290" y="660"/>
      <point x="-1370" y="860"/>
      <point x="-1566" y="860" type="curve" smooth="yes"/>
      <point x="-1746" y="860"/>
      <point x="-1847" y="711"/>
      <point x="-1929" y="544" type="curve"/>
      <point x="-1752" y="465" type="line"/>
      <point x="-1700" y="561"/>
      <point x="-1652" y="621"/>
      <point x="-1574" y="621" type="curve" smooth="yes"/>
      <point x="-1453" y="621"/>
      <point x="-1370" y="421"/>
      <point x="-1178" y="421" type="curve" smooth="yes"/>
      <point x="-984" y="421"/>
      <point x="-922" y="621"/>
      <point x="-802" y="621" type="curve" smooth="yes"/>
      <point x="-682" y="621"/>
      <point x="-598" y="421"/>
      <point x="-406" y="421" type="curve" smooth="yes"/>
      <point x="-212" y="421"/>
      <point x="-150" y="621"/>
      <point x="-30" y="621" type="curve" smooth="yes"/>
      <point x="90" y="621"/>
      <point x="174" y="421"/>
      <point x="366" y="421" type="curve" smooth="yes"/>
      <point x="544" y="421"/>
      <point x="643" y="551"/>
      <point x="729" y="737" type="curve"/>
    </contour>
  </outline>
</glyph>
<glyph name="breve.case" format="2">
  <advance width="1200"/>
  <anchor x="600" y="1386" name="_top"/>
  <outline>
    <contour>
      <point x="600" y="1502" type="curve" smooth="yes"/>
      <point x="820" y="1502"/>
      <point x="927" y="1639"/>
      <point x="945" y="1811" type="curve"/>
      <point x="770" y="1842" type="line"/>
      <point x="744" y="1758"/>
      <point x="692" y="1722"/>
      <point x="600" y="1722" type="curve" smooth="yes"/>
      <point x="508" y="1722"/>
      <point x="456" y="1758"/>
      <point x="430" y="1842" type="curve"/>
      <point x="255" y="1811" type="line"/>
      <point x="275" y="1639"/>
      <point x="380" y="1502"/>
    </contour>
  </outline>
</glyph>
<glyph name="caron.alt" format="2">
  <advance width="1200"/>
  <anchor x="441" y="1378" name="_topright"/>
  <outline>
    <contour>
      <point x="527" y="1421" type="line"/>
      <point x="452" y="956" type="line"/>
      <point x="649" y="925" type="line"/>
      <point x="803" y="1388" type="line"/>
    </contour>
  </outline>
</glyph>
<glyph name="descRound-cy" format="2">
  <advance width="1200"/>
  <anchor x="596" y="0" name="_bottom"/>
  <outline>
    <contour>
      <point x="503" y="56" type="curve"/>
      <point x="457" y="0" type="line"/>
      <point x="606" y="-84"/>
      <point x="641" y="-170"/>
      <point x="641" y="-238" type="curve" smooth="yes"/>
      <point x="641" y="-295"/>
      <point x="607" y="-337"/>
      <point x="529" y="-337" type="curve" smooth="yes"/>
      <point x="479" y="-337"/>
      <point x="433" y="-323"/>
      <point x="405" y="-308" type="curve"/>
      <point x="341" y="-465" type="line"/>
      <point x="403" y="-499"/>
      <point x="470" y="-515"/>
      <point x="553" y="-515" type="curve" smooth="yes"/>
      <point x="742" y="-515"/>
      <point x="857" y="-421"/>
      <point x="857" y="-272" type="curve" smooth="yes"/>
      <point x="857" y="-100"/>
      <point x="722" y="-12"/>
    </contour>
  </outline>
</glyph>
<glyph name="descTail-cy" format="2">
  <advance width="1200"/>
  <anchor x="336" y="0" name="_bottom"/>
  <anchor x="360" y="0" name="_bottomleft"/>
  <anchor x="351" y="0" name="_bottomright"/>
  <outline>
    <contour>
      <point x="569" y="280" type="line"/>
      <point x="72" y="280" type="line"/>
      <point x="114" y="0" type="line"/>
      <point x="194" y="0" type="line"/>
      <point x="114" y="-349" type="line"/>
      <point x="371" y="-349" type="line"/>
    </contour>
  </outline>
</glyph>
<glyph name="dieresisgravecomb" format="2">
  <advance width="1200"/>
  <anchor x="602" y="1062" name="_top"/>
  <outline>
    <contour>
      <point x="843" y="1519" type="curve" smooth="yes"/>
      <point x="756" y="1519"/>
      <point x="682" y="1449"/>
      <point x="682" y="1360" type="curve" smooth="yes"/>
      <point x="682" y="1273"/>
      <point x="756" y="1201"/>
      <point x="843" y="1201" type="curve" smooth="yes"/>
      <point x="936" y="1201"/>
      <point x="1006" y="1273"/>
      <point x="1006" y="1360" type="curve" smooth="yes"/>
      <point x="1006" y="1449"/>
      <point x="936" y="1519"/>
    </contour>
    <contour>
      <point x="357" y="1519" type="curve" smooth="yes"/>
      <point x="268" y="1519"/>
      <point x="194" y="1449"/>
      <point x="194" y="1360" type="curve" smooth="yes"/>
      <point x="194" y="1273"/>
      <point x="268" y="1201"/>
      <point x="357" y="1201" type="curve" smooth="yes"/>
      <point x="448" y="1201"/>
      <point x="518" y="1273"/>
      <point x="518" y="1360" type="curve" smooth="yes"/>
      <point x="518" y="1449"/>
      <point x="448" y="1519"/>
    </contour>
    <contour>
      <point x="463" y="1899" type="line"/>
      <point x="291" y="1732" type="line"/>
      <point x="606" y="1451" type="line"/>
      <point x="726" y="1558" type="line"/>
    </contour>
  </outline>
</glyph>
<glyph name="eight.tosf" format="2">
  <advance width="1200"/>
  <outline>
    <contour>
      <point x="1061" y="1054" type="curve" smooth="yes"/>
      <point x="1061" y="1280"/>
      <point x="872" y="1421"/>
      <point x="602" y="1421" type="curve" smooth="yes"/>
      <point x="338" y="1421"/>
      <point x="139" y="1274"/>
      <point x="139" y="1038" type="curve" smooth="yes"/>
      <point x="139" y="884"/>
      <point x="198" y="804"/>
      <point x="340" y="714" type="curve"/>
      <point x="184" y="646"/>
      <point x="85" y="526"/>
      <point x="85" y="368" type="curve" smooth="yes"/>
      <point x="85" y="154"/>
      <point x="255" y="-34"/>
      <point x="594" y="-34" type="curve" smooth="yes"/>
      <point x="939" y="-34"/>
      <point x="1115" y="162"/>
      <point x="1115" y="376" type="curve" smooth="yes"/>
      <point x="1115" y="532"/>
      <point x="1032" y="660"/>
      <point x="846" y="754" type="curve"/>
      <point x="994" y="837"/>
      <point x="1061" y="924"/>
    </contour>
    <contour>
      <point x="799" y="378" type="curve" smooth="yes"/>
      <point x="799" y="278"/>
      <point x="739" y="192"/>
      <point x="602" y="192" type="curve" smooth="yes"/>
      <point x="468" y="192"/>
      <point x="401" y="272"/>
      <point x="401" y="387" type="curve" smooth="yes"/>
      <point x="401" y="497"/>
      <point x="453" y="577"/>
      <point x="534" y="629" type="curve"/>
      <point x="721" y="563"/>
      <point x="799" y="515"/>
    </contour>
    <contour>
      <point x="440" y="1038" type="curve" smooth="yes"/>
      <point x="440" y="1149"/>
      <point x="499" y="1206"/>
      <point x="602" y="1206" type="curve" smooth="yes"/>
      <point x="707" y="1206"/>
      <point x="760" y="1135"/>
      <point x="760" y="1036" type="curve" smooth="yes"/>
      <point x="760" y="959"/>
      <point x="733" y="897"/>
      <point x="642" y="831" type="curve"/>
      <point x="503" y="883"/>
      <point x="440" y="940"/>
    </contour>
  </outline>
</glyph>
<glyph name="equal.dnom" format="2">
  <advance width="1200"/>
  <outline>
    <contour>
      <point x="879" y="545" type="line"/>
      <point x="321" y="545" type="line"/>
      <point x="321" y="380" type="line"/>
      <point x="879" y="380" type="line"/>
    </contour>
    <contour>
      <point x="879" y="286" type="line"/>
      <point x="321" y="286" type="line"/>
      <point x="321" y="123" type="line"/>
      <point x="879" y="123" type="line"/>
    </contour>
  </outline>
</glyph>
<glyph name="equal_slash_equal.liga" format="2">
  <advance width="1200"/>
  <outline>
    <contour>
      <point x="-898" y="-122" type="line"/>
      <point x="-70" y="1275" type="line"/>
      <point x="-298" y="1388" type="line"/>
      <point x="-1130" y="-5" type="line"/>
    </contour>
    <contour>
      <point x="1054" y="956" type="line"/>
      <point x="-2254" y="956" type="line"/>
      <point x="-2254" y="709" type="line"/>
      <point x="1054" y="709" type="line"/>
    </contour>
    <contour>
      <point x="1054" y="535" type="line"/>
      <point x="-2254" y="535" type="line"/>
      <point x="-2254" y="290" type="line"/>
      <point x="1054" y="290" type="line"/>
    </contour>
  </outline>
</glyph>
<glyph name="greater_hyphen_greater.liga" format="2">
  <advance width="1200"/>
  <outline>
    <contour>
      <point x="379" y="1298" type="line"/>
      <point x="187" y="1134" type="line"/>
      <point x="341" y="968" type="line" smooth="yes"/>
      <point x="424" y="879"/>
      <point x="497" y="808"/>
      <point x="582" y="755" type="curve"/>
      <point x="-1646" y="755" type="line"/>
      <point x="-1646" y="497" type="line"/>
      <point x="578" y="497" type="line"/>
      <point x="497" y="442"/>
      <point x="422" y="373"/>
      <point x="341" y="284" type="curve" smooth="yes"/>
      <point x="187" y="118" type="line"/>
      <point x="379" y="-46" type="line"/>
      <point x="983" y="626" type="line"/>
    </contour>
    <component base="_part.arrowhead" xOffset="-2400"/>
  </outline>
</glyph>
<glyph name="hyphen_asciitilde.liga" format="2">
  <advance width="1200"/>
  <outline>
    <contour>
      <point x="820" y="817" type="line"/>
      <point x="766" y="715"/>
      <point x="718" y="660"/>
      <point x="642" y="660" type="curve" smooth="yes"/>
      <point x="522" y="660"/>
      <point x="442" y="860"/>
      <point x="246" y="860" type="curve" smooth="yes"/>
      <point x="67" y="860"/>
      <point x="27" y="749"/>
      <point x="-119" y="749" type="curve" smooth="yes"/>
      <point x="-983" y="749" type="line"/>
      <point x="-983" y="503" type="line"/>
      <point x="-66" y="503" type="line" smooth="yes"/>
      <point x="104" y="501"/>
      <point x="112" y="621"/>
      <point x="238" y="621" type="curve" smooth="yes"/>
      <point x="358" y="621"/>
      <point x="442" y="421"/>
      <point x="634" y="421" type="curve" smooth="yes"/>
      <point x="812" y="421"/>
      <point x="912" y="551"/>
      <point x="997" y="737" type="curve"/>
    </contour>
  </outline>
</glyph>
<glyph name="hyphen_less_less.liga" format="2">
  <advance width="1200"/>
  <outline>
    <contour>
      <point x="-2183" y="503" type="line"/>
      <point x="-346" y="503" type="line"/>
      <point x="-346" y="749" type="line"/>
      <point x="-2183" y="749" type="line"/>
    </contour>
    <component base="_part.arrowhead" xScale="-1" xOffset="408"/>
    <component base="_part.arrowhead" xScale="-1" xOffset="1193"/>
  </outline>
</glyph>
<glyph name="ksi-cyHELPER" format="2">
  <advance width="1200"/>
  <anchor x="584" y="1062" name="top"/>
  <outline>
    <contour>
      <point x="428" y="-453" type="curve"/>
      <point x="514" y="-265" type="line"/>
      <point x="464" y="-239"/>
      <point x="439" y="-214"/>
      <point x="439" y="-182" type="curve" smooth="yes"/>
      <point x="439" y="-139"/>
      <point x="468" y="-117"/>
      <point x="674" y="-66" type="curve" smooth="yes"/>
      <point x="922" y="-5"/>
      <point x="1075" y="72"/>
      <point x="1075" y="284" type="curve" smooth="yes"/>
      <point x="1075" y="462"/>
      <point x="950" y="570"/>
      <point x="738" y="570" type="curve" smooth="yes"/>
      <point x="664" y="570" type="line"/>
      <point x="1015" y="840" type="line"/>
      <point x="1015" y="1062" type="line"/>
      <point x="152" y="1062" type="line"/>
      <point x="152" y="834" type="line"/>
      <point x="649" y="834" type="line"/>
      <point x="297" y="545" type="line"/>
      <point x="297" y="360" type="line"/>
      <point x="620" y="360" type="line" smooth="yes"/>
      <point x="702" y="360"/>
      <point x="735" y="337"/>
      <point x="735" y="288" type="curve" smooth="yes"/>
      <point x="735" y="220"/>
      <point x="680" y="190"/>
      <point x="462" y="134" type="curve" smooth="yes"/>
      <point x="210" y="72"/>
      <point x="123" y="-14"/>
      <point x="123" y="-148" type="curve" smooth="yes"/>
      <point x="123" y="-289"/>
      <point x="242" y="-385"/>
    </contour>
  </outline>
</glyph>
<glyph name="less_equal_equal_greater.liga" format="2">
  <advance width="1200"/>
  <outline>
    <contour>
      <point x="765" y="956" type="line"/>
      <point x="-3165" y="956" type="line"/>
      <point x="-3165" y="709" type="line"/>
      <point x="765" y="709" type="line"/>
    </contour>
    <contour>
      <point x="765" y="535" type="line"/>
      <point x="-3165" y="535" type="line"/>
      <point x="-3165" y="290" type="line"/>
      <point x="765" y="290" type="line"/>
    </contour>
    <component base="_part.arrowhead2"/>
    <component base="_part.arrowhead2" xScale="-1" xOffset="-2400"/>
  </outline>
</glyph>
<glyph name="numbersign_exclam.liga" format="2">
  <advance width="1200"/>
  <outline>
    <contour>
      <point x="680" y="497" type="line"/>
      <point x="796" y="1386" type="line"/>
      <point x="495" y="1386" type="line"/>
      <point x="377" y="497" type="line"/>
    </contour>
    <contour>
      <point x="634" y="0" type="line"/>
      <point x="672" y="287" type="line"/>
      <point x="331" y="287" type="line"/>
      <point x="293" y="0" type="line"/>
    </contour>
    <component base="numbersign" xOffset="-1000"/>
  </outline>
</glyph>
<glyph name="numbersign_numbersign.liga" format="2">
  <advance width="1200"/>
  <outline>
    <contour>
      <point x="1131" y="893" type="line"/>
      <point x="1131" y="1102" type="line"/>
      <point x="1010" y="1102" type="line"/>
      <point x="1048" y="1386" type="line"/>
      <point x="787" y="1386" type="line"/>
      <point x="749" y="1102" type="line"/>
      <point x="558" y="1102" type="line"/>
      <point x="597" y="1386" type="line"/>
      <point x="334" y="1386" type="line"/>
      <point x="298" y="1102" type="line"/>
      <point x="-190" y="1102" type="line"/>
      <point x="-152" y="1386" type="line"/>
      <point x="-413" y="1386" type="line"/>
      <point x="-451" y="1102" type="line"/>
      <point x="-642" y="1102" type="line"/>
      <point x="-603" y="1386" type="line"/>
      <point x="-866" y="1386" type="line"/>
      <point x="-902" y="1102" type="line"/>
      <point x="-1055" y="1102" type="line"/>
      <point x="-1055" y="893" type="line"/>
      <point x="-930" y="893" type="line"/>
      <point x="-982" y="497" type="line"/>
      <point x="-1129" y="497" type="line"/>
      <point x="-1129" y="289" type="line"/>
      <point x="-1010" y="289" type="line"/>
      <point x="-1046" y="0" type="line"/>
      <point x="-785" y="0" type="line"/>
      <point x="-747" y="289" type="line"/>
      <point x="-557" y="289" type="line"/>
      <point x="-595" y="0" type="line"/>
      <point x="-334" y="0" type="line"/>
      <point x="-296" y="289" type="line"/>
      <point x="190" y="289" type="line"/>
      <point x="154" y="0" type="line"/>
      <point x="415" y="0" type="line"/>
      <point x="453" y="289" type="line"/>
      <point x="643" y="289" type="line"/>
      <point x="605" y="0" type="line"/>
      <point x="866" y="0" type="line"/>
      <point x="904" y="289" type="line"/>
      <point x="1057" y="289" type="line"/>
      <point x="1057" y="497" type="line"/>
      <point x="932" y="497" type="line"/>
      <point x="982" y="893" type="line"/>
    </contour>
    <contour>
      <point x="-531" y="497" type="line"/>
      <point x="-721" y="497" type="line"/>
      <point x="-669" y="893" type="line"/>
      <point x="-479" y="893" type="line"/>
    </contour>
    <contour>
      <point x="218" y="497" type="line"/>
      <point x="-268" y="497" type="line"/>
      <point x="-218" y="893" type="line"/>
      <point x="270" y="893" type="line"/>
    </contour>
    <contour>
      <point x="669" y="497" type="line"/>
      <point x="479" y="497" type="line"/>
      <point x="531" y="893" type="line"/>
      <point x="721" y="893" type="line"/>
    </contour>
  </outline>
</glyph>
<glyph name="numbersign_question.liga" format="2">
  <advance width="1200"/>
  <outline>
    <contour>
      <point x="-98" y="893" type="line"/>
      <point x="218" y="893" type="line"/>
      <point x="53" y="1102" type="line"/>
      <point x="-70" y="1102" type="line"/>
      <point x="-32" y="1386" type="line"/>
      <point x="-293" y="1386" type="line"/>
      <point x="-331" y="1102" type="line"/>
      <point x="-522" y="1102" type="line"/>
      <point x="-483" y="1386" type="line"/>
      <point x="-746" y="1386" type="line"/>
      <point x="-782" y="1102" type="line"/>
      <point x="-935" y="1102" type="line"/>
      <point x="-935" y="893" type="line"/>
      <point x="-810" y="893" type="line"/>
      <point x="-862" y="497" type="line"/>
      <point x="-1009" y="497" type="line"/>
      <point x="-1009" y="289" type="line"/>
      <point x="-890" y="289" type="line"/>
      <point x="-926" y="0" type="line"/>
      <point x="-665" y="0" type="line"/>
      <point x="-627" y="289" type="line"/>
      <point x="-437" y="289" type="line"/>
      <point x="-475" y="0" type="line"/>
      <point x="-214" y="0" type="line"/>
      <point x="-176" y="289" type="line"/>
      <point x="-23" y="289" type="line"/>
      <point x="-23" y="497" type="line"/>
      <point x="-148" y="497" type="line"/>
    </contour>
    <contour>
      <point x="-601" y="497" type="line"/>
      <point x="-549" y="893" type="line"/>
      <point x="-359" y="893" type="line"/>
      <point x="-411" y="497" type="line"/>
    </contour>
    <contour>
      <point x="592" y="1421" type="curve" smooth="yes"/>
      <point x="383" y="1421"/>
      <point x="145" y="1324"/>
      <point x="53" y="1102" type="curve"/>
      <point x="218" y="893" type="line"/>
      <point x="321" y="1134"/>
      <point x="472" y="1172"/>
      <point x="563" y="1172" type="curve" smooth="yes"/>
      <point x="656" y="1172"/>
      <point x="723" y="1132"/>
      <point x="723" y="1059" type="curve" smooth="yes"/>
      <point x="723" y="893"/>
      <point x="392" y="905"/>
      <point x="392" y="561" type="curve" smooth="yes"/>
      <point x="392" y="510" type="line"/>
      <point x="681" y="510" type="line"/>
      <point x="681" y="551" type="line" smooth="yes"/>
      <point x="681" y="785"/>
      <point x="1052" y="762"/>
      <point x="1052" y="1086" type="curve" smooth="yes"/>
      <point x="1052" y="1264"/>
      <point x="897" y="1421"/>
    </contour>
    <contour>
      <point x="540" y="328" type="curve" smooth="yes"/>
      <point x="439" y="328"/>
      <point x="360" y="246"/>
      <point x="360" y="147" type="curve" smooth="yes"/>
      <point x="360" y="48"/>
      <point x="439" y="-34"/>
      <point x="540" y="-34" type="curve" smooth="yes"/>
      <point x="640" y="-34"/>
      <point x="721" y="48"/>
      <point x="721" y="147" type="curve" smooth="yes"/>
      <point x="721" y="246"/>
      <point x="640" y="328"/>
    </contour>
  </outline>
</glyph>
<glyph name="numbersign_underscore.liga" format="2">
  <advance width="1200"/>
  <outline>
    <contour>
      <point x="-230" y="-124" type="line"/>
      <point x="-176" y="289" type="line"/>
      <point x="-23" y="289" type="line"/>
      <point x="-23" y="497" type="line"/>
      <point x="-148" y="497" type="line"/>
      <point x="-98" y="893" type="line"/>
      <point x="51" y="893" type="line"/>
      <point x="51" y="1102" type="line"/>
      <point x="-70" y="1102" type="line"/>
      <point x="-32" y="1386" type="line"/>
      <point x="-293" y="1386" type="line"/>
      <point x="-331" y="1102" type="line"/>
      <point x="-522" y="1102" type="line"/>
      <point x="-483" y="1386" type="line"/>
      <point x="-746" y="1386" type="line"/>
      <point x="-782" y="1102" type="line"/>
      <point x="-935" y="1102" type="line"/>
      <point x="-935" y="893" type="line"/>
      <point x="-810" y="893" type="line"/>
      <point x="-862" y="497" type="line"/>
      <point x="-1009" y="497" type="line"/>
      <point x="-1009" y="289" type="line"/>
      <point x="-890" y="289" type="line"/>
      <point x="-926" y="0" type="line"/>
      <point x="-665" y="0" type="line"/>
      <point x="-627" y="289" type="line"/>
      <point x="-437" y="289" type="line"/>
      <point x="-525" y="-372" type="line"/>
      <point x="1100" y="-372" type="line"/>
      <point x="1100" y="-124" type="line"/>
    </contour>
    <contour>
      <point x="-601" y="497" type="line"/>
      <point x="-549" y="893" type="line"/>
      <point x="-359" y="893" type="line"/>
      <point x="-411" y="497" type="line"/>
    </contour>
  </outline>
</glyph>
<glyph name="numbersign_underscore_parenleft.liga" format="2">
  <advance width="1200"/>
  <outline>
    <contour>
      <point x="-1430" y="-124" type="line"/>
      <point x="-1376" y="289" type="line"/>
      <point x="-1223" y="289" type="line"/>
      <point x="-1223" y="497" type="line"/>
      <point x="-1348" y="497" type="line"/>
      <point x="-1298" y="893" type="line"/>
      <point x="-1149" y="893" type="line"/>
      <point x="-1149" y="1102" type="line"/>
      <point x="-1270" y="1102" type="line"/>
      <point x="-1232" y="1386" type="line"/>
      <point x="-1493" y="1386" type="line"/>
      <point x="-1531" y="1102" type="line"/>
      <point x="-1722" y="1102" type="line"/>
      <point x="-1683" y="1386" type="line"/>
      <point x="-1946" y="1386" type="line"/>
      <point x="-1982" y="1102" type="line"/>
      <point x="-2135" y="1102" type="line"/>
      <point x="-2135" y="893" type="line"/>
      <point x="-2010" y="893" type="line"/>
      <point x="-2062" y="497" type="line"/>
      <point x="-2209" y="497" type="line"/>
      <point x="-2209" y="289" type="line"/>
      <point x="-2090" y="289" type="line"/>
      <point x="-2126" y="0" type="line"/>
      <point x="-1865" y="0" type="line"/>
      <point x="-1827" y="289" type="line"/>
      <point x="-1637" y="289" type="line"/>
      <point x="-1725" y="-372" type="line"/>
      <point x="790" y="-374" type="line"/>
      <point x="695" y="-124" type="line"/>
    </contour>
    <contour>
      <point x="-1801" y="497" type="line"/>
      <point x="-1749" y="893" type="line"/>
      <point x="-1559" y="893" type="line"/>
      <point x="-1611" y="497" type="line"/>
    </contour>
    <contour>
      <point x="521" y="700" type="curve" smooth="yes"/>
      <point x="522" y="1030"/>
      <point x="632" y="1256"/>
      <point x="901" y="1549" type="curve"/>
      <point x="717" y="1715" type="line"/>
      <point x="401" y="1443"/>
      <point x="201" y="1138"/>
      <point x="201" y="700" type="curve" smooth="yes"/>
      <point x="201" y="221"/>
      <point x="460" y="-122"/>
      <point x="790" y="-374" type="curve"/>
      <point x="961" y="-220" type="line"/>
      <point x="640" y="69"/>
      <point x="521" y="334"/>
    </contour>
  </outline>
</glyph>
<glyph name="ogonek.thin" format="2">
  <advance width="1200"/>
  <anchor x="810" y="0" name="_ogonek"/>
  <outline>
    <contour>
      <point x="755" y="83" type="line"/>
      <point x="522" y="19"/>
      <point x="340" y="-71"/>
      <point x="340" y="-260" type="curve" smooth="yes"/>
      <point x="340" y="-419"/>
      <point x="473" y="-507"/>
      <point x="642" y="-507" type="curve" smooth="yes"/>
      <point x="688" y="-507"/>
      <point x="724" y="-501"/>
      <point x="760" y="-491" type="curve"/>
      <point x="784" y="-304" type="line"/>
      <point x="750" y="-312"/>
      <point x="718" y="-318"/>
      <point x="676" y="-318" type="curve" smooth="yes"/>
      <point x="605" y="-318"/>
      <point x="560" y="-286"/>
      <point x="560" y="-220" type="curve" smooth="yes"/>
      <point x="560" y="-139"/>
      <point x="604" y="-65"/>
      <point x="790" y="0" type="curve"/>
    </contour>
  </outline>
</glyph>
<glyph name="parenleft.dnom" format="2">
  <advance width="1200"/>
  <outline>
    <contour>
      <point x="598" y="347" type="curve" smooth="yes"/>
      <point x="598" y="536"/>
      <point x="661" y="628"/>
      <point x="765" y="780" type="curve"/>
      <point x="644" y="887" type="line"/>
      <point x="479" y="725"/>
      <point x="374" y="580"/>
      <point x="374" y="347" type="curve" smooth="yes"/>
      <point x="374" y="117"/>
      <point x="479" y="-29"/>
      <point x="644" y="-193" type="curve"/>
      <point x="765" y="-84" type="line"/>
      <point x="661" y="68"/>
      <point x="598" y="163"/>
    </contour>
  </outline>
</glyph>
<glyph name="plus.dnom" format="2">
  <advance width="1200"/>
  <outline>
    <contour>
      <point x="701" y="574" type="line"/>
      <point x="499" y="574" type="line"/>
      <point x="499" y="413" type="line"/>
      <point x="341" y="413" type="line"/>
      <point x="341" y="249" type="line"/>
      <point x="499" y="249" type="line"/>
      <point x="499" y="92" type="line"/>
      <point x="701" y="92" type="line"/>
      <point x="701" y="249" type="line"/>
      <point x="859" y="249" type="line"/>
      <point x="859" y="413" type="line"/>
      <point x="701" y="413" type="line"/>
    </contour>
  </outline>
</glyph>
<glyph name="six.dnom" format="2">
  <advance width="1200"/>
  <outline>
    <contour>
      <point x="770" y="481" type="curve"/>
      <point x="860" y="606" type="line"/>
      <point x="798" y="640"/>
      <point x="731" y="654"/>
      <point x="655" y="654" type="curve" smooth="yes"/>
      <point x="414" y="654"/>
      <point x="277" y="504"/>
      <point x="277" y="299" type="curve" smooth="yes"/>
      <point x="277" y="115"/>
      <point x="386" y="-12"/>
      <point x="608" y="-12" type="curve" smooth="yes"/>
      <point x="801" y="-12"/>
      <point x="923" y="84"/>
      <point x="923" y="226" type="curve" smooth="yes"/>
      <point x="923" y="360"/>
      <point x="817" y="428"/>
      <point x="685" y="428" type="curve" smooth="yes"/>
      <point x="617" y="428"/>
      <point x="560" y="406"/>
      <point x="516" y="365" type="curve"/>
      <point x="526" y="460"/>
      <point x="578" y="499"/>
      <point x="661" y="499" type="curve" smooth="yes"/>
      <point x="708" y="499"/>
      <point x="738" y="493"/>
    </contour>
    <contour>
      <point x="620" y="287" type="curve" smooth="yes"/>
      <point x="665" y="287"/>
      <point x="690" y="269"/>
      <point x="690" y="216" type="curve" smooth="yes"/>
      <point x="690" y="170"/>
      <point x="663" y="141"/>
      <point x="610" y="141" type="curve" smooth="yes"/>
      <point x="551" y="141"/>
      <point x="526" y="178"/>
      <point x="518" y="244" type="curve"/>
      <point x="551" y="273"/>
      <point x="586" y="287"/>
    </contour>
  </outline>
</glyph>
<glyph name="slash_equal.liga" format="2">
  <advance width="1200"/>
  <outline>
    <contour>
      <point x="954" y="956" type="line"/>
      <point x="-51" y="956" type="line"/>
      <point x="-170" y="709" type="line"/>
      <point x="954" y="709" type="line"/>
    </contour>
    <contour>
      <point x="954" y="535" type="line"/>
      <point x="-253" y="535" type="line"/>
      <point x="-369" y="290" type="line"/>
      <point x="954" y="290" type="line"/>
    </contour>
    <component base="slash" xOffset="-1100"/>
  </outline>
</glyph>
<glyph name="slash_greater.liga" format="2">
  <advance width="1200"/>
  <outline>
    <contour>
      <point x="-19" y="1409" type="line"/>
      <point x="-159" y="1182" type="line"/>
      <point x="789" y="628" type="line"/>
      <point x="139" y="246" type="line"/>
      <point x="282" y="31" type="line"/>
      <point x="1061" y="515" type="line"/>
      <point x="1061" y="741" type="line"/>
    </contour>
    <component base="slash" xOffset="-1000"/>
  </outline>
</glyph>
<glyph name="three.tosf" format="2">
  <advance width="1200"/>
  <outline>
    <contour>
      <point x="548" y="1164" type="curve" smooth="yes"/>
      <point x="369" y="1164"/>
      <point x="212" y="1102"/>
      <point x="86" y="980" type="curve"/>
      <point x="244" y="818" type="line"/>
      <point x="325" y="894"/>
      <point x="412" y="934"/>
      <point x="513" y="934" type="curve" smooth="yes"/>
      <point x="626" y="934"/>
      <point x="704" y="875"/>
      <point x="704" y="771" type="curve" smooth="yes"/>
      <point x="704" y="658"/>
      <point x="625" y="599"/>
      <point x="504" y="599" type="curve" smooth="yes"/>
      <point x="411" y="599" type="line"/>
      <point x="375" y="391" type="line"/>
      <point x="505" y="391" type="line" smooth="yes"/>
      <point x="650" y="391"/>
      <point x="732" y="327"/>
      <point x="732" y="188" type="curve" smooth="yes"/>
      <point x="732" y="59"/>
      <point x="646" y="-12"/>
      <point x="514" y="-12" type="curve" smooth="yes"/>
      <point x="406" y="-12"/>
      <point x="314" y="30"/>
      <point x="232" y="116" type="curve"/>
      <point x="60" y="-40" type="line"/>
      <point x="166" y="-172"/>
      <point x="329" y="-248"/>
      <point x="534" y="-248" type="curve" smooth="yes"/>
      <point x="869" y="-248"/>
      <point x="1056" y="-64"/>
      <point x="1056" y="166" type="curve" smooth="yes"/>
      <point x="1056" y="382"/>
      <point x="913" y="482"/>
      <point x="735" y="502" type="curve"/>
      <point x="906" y="548"/>
      <point x="1010" y="654"/>
      <point x="1010" y="818" type="curve" smooth="yes"/>
      <point x="1010" y="1009"/>
      <point x="845" y="1164"/>
    </contour>
  </outline>
</glyph>
<glyph name="tsehelper-cy" format="2">
  <advance width="1200"/>
  <anchor x="600" y="0" name="bottom"/>
  <anchor x="1080" y="0" name="bottomright"/>
  <outline>
    <contour>
      <point x="746" y="1062" type="line"/>
      <point x="746" y="233" type="line"/>
      <point x="454" y="233" type="line"/>
      <point x="454" y="1062" type="line"/>
      <point x="140" y="1062" type="line"/>
      <point x="140" y="0" type="line"/>
      <point x="1060" y="0" type="line"/>
      <point x="1060" y="1062" type="line"/>
    </contour>
  </outline>
</glyph>
<glyph name="w_w_w.liga" format="2">
  <advance width="1200"/>
  <anchor x="-1800" y="0" name="bottom"/>
  <anchor x="-1800" y="1062" name="top"/>
  <outline>
    <contour>
      <point x="758" y="1062" type="line"/>
      <point x="688" y="197" type="line"/>
      <point x="577" y="928" type="line"/>
      <point x="311" y="928" type="line"/>
      <point x="191" y="197" type="line"/>
      <point x="53" y="928" type="line"/>
      <point x="-213" y="928" type="line"/>
      <point x="-326" y="197" type="line"/>
      <point x="-469" y="928" type="line"/>
      <point x="-723" y="928" type="line"/>
      <point x="-866" y="197" type="line"/>
      <point x="-979" y="928" type="line"/>
      <point x="-1245" y="928" type="line"/>
      <point x="-1384" y="197" type="line"/>
      <point x="-1503" y="928" type="line"/>
      <point x="-1769" y="928" type="line"/>
      <point x="-1880" y="197" type="line"/>
      <point x="-1950" y="1062" type="line"/>
      <point x="-2239" y="1062" type="line"/>
      <point x="-2082" y="0" type="line"/>
      <point x="-1739" y="0" type="line"/>
      <point x="-1636" y="714" type="line"/>
      <point x="-1512" y="0" type="line"/>
      <point x="-1244" y="0" type="line"/>
      <point x="-1116" y="714" type="line"/>
      <point x="-992" y="0" type="line"/>
      <point x="-724" y="0" type="line"/>
      <point x="-596" y="714" type="line"/>
      <point x="-468" y="0" type="line"/>
      <point x="-200" y="0" type="line"/>
      <point x="-76" y="714" type="line"/>
      <point x="52" y="0" type="line"/>
      <point x="319" y="0" type="line"/>
      <point x="444" y="714" type="line"/>
      <point x="547" y="0" type="line"/>
      <point x="890" y="0" type="line"/>
      <point x="1047" y="1062" type="line"/>
    </contour>
  </outline>
</glyph>
<glyph name="x.multiply" format="2">
  <advance width="1200"/>
  <outline>
    <contour>
      <point x="865" y="1089" type="line"/>
      <point x="600" y="822" type="line"/>
      <point x="335" y="1089" type="line"/>
      <point x="161" y="915" type="line"/>
      <point x="430" y="652" type="line"/>
      <point x="161" y="385" type="line"/>
      <point x="335" y="211" type="line"/>
      <point x="600" y="482" type="line"/>
      <point x="865" y="211" type="line"/>
      <point x="1039" y="385" type="line"/>
      <point x="770" y="652" type="line"/>
      <point x="1039" y="915" type="line"/>
    </contour>
  </outline>
</glyph>
<glyph name="zero.tosf" format="2">
  <advance width="1200"/>
  <outline>
    <contour>
      <point x="600" y="1164" type="curve" smooth="yes"/>
      <point x="248" y="1164"/>
      <point x="71" y="928"/>
      <point x="71" y="570" type="curve" smooth="yes"/>
      <point x="71" y="210"/>
      <point x="261" y="-34"/>
      <point x="600" y="-34" type="curve" smooth="yes"/>
      <point x="949" y="-34"/>
      <point x="1129" y="209"/>
      <point x="1129" y="570" type="curve" smooth="yes"/>
      <point x="1129" y="928"/>
      <point x="943" y="1164"/>
    </contour>
    <contour>
      <point x="600" y="940" type="curve" smooth="yes"/>
      <point x="761" y="940"/>
      <point x="838" y="863"/>
      <point x="838" y="570" type="curve" smooth="yes"/>
      <point x="838" y="294"/>
      <point x="743" y="190"/>
      <point x="600" y="190" type="curve" smooth="yes"/>
      <point x="437" y="190"/>
      <point x="362" y="271"/>
      <point x="362" y="570" type="curve" smooth="yes"/>
      <point x="362" y="843"/>
      <point x="459" y="940"/>
    </contour>
    <contour>
      <point x="731" y="964" type="line"/>
      <point x="387" y="303" type="line"/>
      <point x="477" y="176" type="line"/>
      <point x="815" y="832" type="line"/>
    </contour>
  </outline>
</glyph>
